<?xml version="1.0" encoding="UTF-8" standalone="no"?>
<svg
   width="99.318459"
   height="57.158745"
   viewBox="-20 -20 99.318459 57.158745"
   version="1.1"
   id="svg1927"
   sodipodi:docname="wetzelsberg.ee.svg"
   inkscape:version="1.2.2 (b0a8486541, 2022-12-01)"
   inkscape:export-filename="wetzelsberg.ee.png"
   inkscape:export-xdpi="71.5541"
   inkscape:export-ydpi="71.5541"
   xmlns:inkscape="http://www.inkscape.org/namespaces/inkscape"
   xmlns:sodipodi="http://sodipodi.sourceforge.net/DTD/sodipodi-0.dtd"
   xmlns="http://www.w3.org/2000/svg"
   xmlns:svg="http://www.w3.org/2000/svg">
  <defs
     id="defs1931" />
  <sodipodi:namedview
     id="namedview1929"
     pagecolor="#ffffff"
     bordercolor="#666666"
     borderopacity="1.0"
     inkscape:showpageshadow="2"
     inkscape:pageopacity="0.0"
     inkscape:pagecheckerboard="0"
     inkscape:deskcolor="#d1d1d1"
     showgrid="false"
     inkscape:zoom="5.1309228"
     inkscape:cx="17.638153"
     inkscape:cy="26.993195"
     inkscape:current-layer="svg1927" />
  <g
     id="sketch"
     transform="translate(-17.220881,-18.972403)">
    <polyline
       points="-2.6718283,2.3011303 -1.8149185,2.8921223 -0.70684433,4.5764446 -0.11587143,5.0640106 0.7410383,6.201668 2.3218918,7.30978 3.7402248,7.974634 5.5722475,10.176077 6.8428373,11.313734 9.443116,13.027601 9.812474,13.219681 11.2455845,13.574276 12.220688,14.253912 13.313985,14.741478 15.500588,16.987238 16.416592,17.371387 17.17009,17.947598 18.219067,18.568144 19.341911,19.49895 20.804562,19.88309 23.58215,21.316252 24.409508,21.848145 25.857395,22.483454 26.093784,22.631197 26.566559,23.591557 26.950687,24.034805 27.571205,24.241648"
       stroke="#000000"
       stroke-width="1"
       fill="none"
       id="polyline1739"
       style="stroke-width:0.377953;stroke-dasharray:none" />
    <polyline
       points="-0.11587143,-0.84589005 -0.21928787,-0.8163452 0.7410383,-0.018510818 3.9913893,1.2668991 4.95172,1.3850975 5.321083,1.5328407 6.370058,2.4636555 6.9314766,2.640953 7.6110983,3.3501434 8.142977,3.7047386 9.679503,4.310503 10.13751,4.399147 11.467199,5.049238 12.959399,6.245985 13.328767,6.6449165 15.722203,8.299685 19.00211,10.116978 21.927418,12.229776 23.257107,13.012829 24.114014,13.840218 25.29596,14.23914 25.6801,14.475527 26.019913,14.963102 26.847271,15.598412 27.14275,15.938234 27.54166,16.115532 28.398575,16.29283 29.033867,16.691751 29.669167,17.312279 30.304455,17.593002"
       stroke="#000000"
       stroke-width="1"
       fill="none"
       id="polyline1741"
       style="stroke-width:0.377953;stroke-dasharray:none" />
    <polyline
       points="29.964653,24.803085 29.949879,24.788313"
       stroke="#000000"
       stroke-width="1"
       fill="none"
       id="polyline1743"
       style="stroke-width:0.377953;stroke-dasharray:none" />
    <polyline
       points="29.536194,24.788313 29.37368,24.773531 29.225937,24.69966 29.595284,25.172462 29.949879,25.334978 30.289684,25.586147 31.16137,26.088495 32.166027,26.50218 32.786556,26.472645 33.2741,26.295338 33.62869,26.221466 33.95372,26.25101 34.58901,26.561289 35.652767,26.915884 37.0711,27.477322 37.70639,27.59552 38.8588,27.92056 39.44977,27.950106 39.833893,28.068314 40.794235,28.097858 41.134037,28.216057 41.54772,28.49678 42.03527,28.614979 42.744442,28.94002 43.010384,29.161644 43.42407,29.368486 43.76387,29.619665 43.896843,30.018578"
       stroke="#000000"
       stroke-width="1"
       fill="none"
       id="polyline1745"
       style="stroke-width:0.377953;stroke-dasharray:none" />
    <polyline
       points="39.87823,28.526335 39.62706,28.393354 39.582733,28.275156 39.76002,28.186512 40.025963,28.245611 40.30668,28.49678 41.060177,28.866148 41.57728,29.338942 42.375084,29.45714 42.67057,29.767408 42.906956,29.870834 43.527473,29.870834 44.07413,30.28452 44.70942,30.402727 45.019688,30.639114 46.438023,31.37786 47.028996,31.850653 47.974552,32.02795 48.4621,32.234795 49.23037,32.766685 49.46676,33.017853 49.836117,33.209923 51.40219,33.727036 51.71246,34.09642 52.761425,34.628304 53.204666,34.776047 54.002472,35.307953 54.32751,35.662544 54.63777,35.86939 55.0219,36.356964 56.262947,37.27298 58.493866,38.38109 58.863224,38.70614 60.16336,39.47443 61.271435,39.81423 61.803318,40.10975 63.133007,40.346138 63.85695,40.390472"
       stroke="#000000"
       stroke-width="1"
       fill="none"
       id="polyline1747"
       style="stroke-width:0.377953;stroke-dasharray:none" />
    <polyline
       points="30.209541,17.563095 30.736145,17.952923 31.187517,18.034996 31.967165,18.479548 33.31445,18.848862 34.162487,18.862543 34.654896,18.773632 36.118443,19.060879 37.50676,19.430199 38.498417,19.922619 39.55846,20.73648 40.967297,22.159039 41.3366,22.336855 42.239357,23.36958 43.812325,24.757938 44.489384,25.783821 45.337425,26.597687 45.583626,27.021713 46.397472,27.780867 48.414974,28.56054 48.859512,28.936691 49.604965,29.182907 50.1726,29.620613 51.581436,30.31137 53.352737,30.7696 53.92721,31.12524 54.898354,31.446686 55.295013,31.535591 55.766903,31.501392"
       stroke="#000000"
       stroke-width="1"
       fill="none"
       id="polyline1749"
       style="stroke-width:0.377953;stroke-dasharray:none" />
    <polyline
       points="56.272995,31.275702 56.10202,31.316738 56.10202,31.344093 56.184082,31.398808 56.307186,31.398808 56.464485,31.460361 56.66281,31.61766 56.90902,31.692896 57.175743,31.733929 57.408264,31.733929 57.93487,31.665535 58.5367,31.638184 59.480484,31.385132 60.095997,31.323576 60.376396,31.262026 60.861965,31.084204 61.20392,31.015816 62.304996,30.981613 62.858955,31.03633 63.460785,31.118402 63.836933,31.241503 64.34302,31.562948 65.02008,32.192158"
       stroke="#000000"
       stroke-width="1"
       fill="none"
       id="polyline1751"
       style="stroke-width:0.377953;stroke-dasharray:none" />
    <polyline
       points="47.087425,55.942173 47.167393,55.942173"
       stroke="#000000"
       stroke-width="1"
       fill="none"
       id="polyline1753"
       style="stroke-width:0.377953;stroke-dasharray:none" />
    <polyline
       points="65.42358,32.253708 66.326324,32.65038 67.2154,32.91027 68.22073,32.917114 68.84992,33.094925"
       stroke="#000000"
       stroke-width="1"
       fill="none"
       id="polyline1755"
       style="stroke-width:0.377953;stroke-dasharray:none" />
    <polyline
       points="68.87727,32.99234 68.80205,32.882915 68.9867,32.81452 68.8978,32.95131 68.78153,32.93079 68.521645,33.074413 69.55434,33.443733 71.52397,33.751495 72.6319,33.819885 74.59469,33.78569 75.81887,33.92247 77.80218,33.936153 79.0674,34.113976 80.804504,34.797894 81.26956,35.091976 82.22017,35.488655"
       stroke="#000000"
       stroke-width="1"
       fill="none"
       id="polyline1757"
       style="stroke-width:0.377953;stroke-dasharray:none" />
    <polyline
       points="81.74828,35.652794 81.68674,35.652794 81.78932,35.693825 81.83035,35.830616 82.07656,36.049465 83.12977,36.699196 83.663216,37.205296 84.237686,37.519897 84.83268,38.03968 85.42084,38.374794 85.89272,38.559456 86.241516,38.805664 86.86386,39.40068 87.171616,39.62637 87.53409,40.064083 88.20431,40.734325 88.53258,41.15152 88.82666,41.397728 89.08653,41.520836 89.43533,41.821762 89.8867,42.30734 90.10555,42.423607 90.30388,42.628784 90.79629,42.820286 92.01363,43.47685 92.574425,43.688866 93.13522,44.085537 93.456665,44.48905 94.11322,44.85153 94.332054,45.07038 95.05699,45.55597 95.37159,45.82953 95.665665,46.164658 95.8298,46.47926 96.17859,46.97168 96.29485,47.252087 96.34956,48.148026 96.253815,48.831944 96.08969,49.187588 95.91872,49.41328 95.74773,49.54323 94.74239,49.967262 94.43465,49.994606 94.03798,49.7484 93.429306,49.58426 92.28035,49.043957 91.95207,48.797752 91.063,48.284805 90.49538,47.894978 89.46953,47.36152 87.650345,47.197376 87.349434,46.90329 87.30156,46.657074"
       stroke="#000000"
       stroke-width="1"
       fill="none"
       id="polyline1759"
       style="stroke-width:0.377953;stroke-dasharray:none" />
    <polyline
       points="86.309906,45.61752 86.22099,45.720108 86.13892,45.96632 86.1868,46.253563 86.39197,46.445065 86.63133,46.51345 86.85019,46.4177 87.01431,46.14414 87.04851,45.98 86.84334,45.733788 86.52876,45.67223 86.27571,45.767982 86.268875,45.98683"
       stroke="#000000"
       stroke-width="1"
       fill="none"
       id="polyline1761"
       style="stroke-width:0.377953;stroke-dasharray:none" />
    <polyline
       points="85.058365,45.26188 85.017334,45.255043 85.07888,45.412346 85.25669,45.740623 85.509735,45.9458 85.68071,45.98 85.69439,45.87741 85.59864,45.508095 85.167786,45.131935 84.42918,44.91308 83.65637,44.91308 83.18447,45.19349 83.136604,45.391827"
       stroke="#000000"
       stroke-width="1"
       fill="none"
       id="polyline1763"
       style="stroke-width:0.377953;stroke-dasharray:none" />
    <polyline
       points="83.03402,44.646347 82.94511,44.646347 82.86988,44.837852 82.90407,45.12509 83.122925,45.22084 83.334946,45.159294 83.58798,44.885727 83.64269,44.666866 83.47855,44.448013 83.122925,44.29071 82.767296,44.365944 82.66472,44.591637 82.66472,44.66003"
       stroke="#000000"
       stroke-width="1"
       fill="none"
       id="polyline1765"
       style="stroke-width:0.377953;stroke-dasharray:none" />
    <polyline
       points="80.613014,44.31807 80.4694,44.30439 80.35313,44.41382 80.401,44.78314 80.7156,44.99515 81.12594,44.858364 81.35846,44.427498 81.42685,43.962433 81.262726,43.716217 80.9618,43.839325 80.68825,44.338585 80.63353,44.844685 80.81818,45.01567"
       stroke="#000000"
       stroke-width="1"
       fill="none"
       id="polyline1767"
       style="stroke-width:0.377953;stroke-dasharray:none" />
    <polyline
       points="79.69659,43.244316 79.47774,43.216957 79.29308,43.299026 79.30676,43.668343 79.56664,44.119728 79.88808,44.331745 80.17532,44.24968 80.325775,43.976105 80.19583,43.702545 79.85388,43.61363 79.46405,43.682022 79.21101,43.846165"
       stroke="#000000"
       stroke-width="1"
       fill="none"
       id="polyline1769"
       style="stroke-width:0.377953;stroke-dasharray:none" />
    <polyline
       points="77.81586,43.449486 77.72695,43.579437 77.92528,43.839325 78.23304,44.078693 78.527115,44.13341 78.71177,44.02398 78.75281,43.77777 78.609184,43.48369 78.12361,43.182762 77.54914,43.0323 77.11144,43.155403 76.81736,43.606792 76.76265,44.078693 77.09092,44.24284"
       stroke="#000000"
       stroke-width="1"
       fill="none"
       id="polyline1771"
       style="stroke-width:0.377953;stroke-dasharray:none" />
    <polyline
       points="77.28925,43.12121 77.20719,43.134884 77.00202,43.312706 77.02937,43.5384 77.24138,43.702545 77.46707,43.6957 77.67908,43.38794 77.69959,43.004944 77.34396,42.656143 76.77633,42.457806 76.21553,42.450966 75.84622,42.669815 75.77783,42.738213"
       stroke="#000000"
       stroke-width="1"
       fill="none"
       id="polyline1773"
       style="stroke-width:0.377953;stroke-dasharray:none" />
    <polyline
       points="74.50578,42.122684 74.29377,42.21159 73.95181,42.53987 73.794525,42.902355 73.917625,42.888676 74.14331,42.60827 74.273254,42.32786 74.17067,42.006416 73.80136,41.787567 73.247406,41.69865 72.78235,41.828598 72.46776,42.109 72.406204,42.382576 72.406204,42.47148"
       stroke="#000000"
       stroke-width="1"
       fill="none"
       id="polyline1775"
       style="stroke-width:0.377953;stroke-dasharray:none" />
    <polyline
       points="72.406204,42.020096 72.35149,42.081646 72.26259,42.457806 72.474594,42.833958 72.72764,43.004944 72.91913,43.018623 73.09694,42.745052 73.1243,42.3347 72.89178,42.006416 72.50879,41.855957 72.050575,41.924347 71.66076,42.197918"
       stroke="#000000"
       stroke-width="1"
       fill="none"
       id="polyline1777"
       style="stroke-width:0.377953;stroke-dasharray:none" />
    <polyline
       points="70.3887,41.329338 69.97152,41.425087 69.72531,41.753365 69.69796,42.102165 69.96468,42.314182 70.28611,42.34838 70.593864,42.197918 70.71013,41.917503 70.71013,41.71917 70.46393,41.589222 70.14934,41.54819 69.80738,41.637096 69.54066,41.808083 69.513306,41.883312"
       stroke="#000000"
       stroke-width="1"
       fill="none"
       id="polyline1779"
       style="stroke-width:0.377953;stroke-dasharray:none" />
    <polyline
       points="70.128815,41.883312 69.786865,41.650776 69.33549,41.38405 68.88412,41.30882 68.59688,41.411407 68.43958,41.596066 68.48746,41.555027 68.50113,41.397728 68.40539,41.226746 68.16602,41.13784 67.83091,41.124157 67.454765,41.13784 67.13333,41.083122 66.91448,40.87111 66.69563,40.727486 66.54517,40.652252 66.4084,40.638577 66.41524,40.83691 66.48363,40.939503"
       stroke="#000000"
       stroke-width="1"
       fill="none"
       id="polyline1781"
       style="stroke-width:0.377953;stroke-dasharray:none" />
    <polyline
       points="53.28142,45.00316 53.28142,45.00316"
       stroke="#000000"
       stroke-width="1"
       fill="none"
       id="polyline1783"
       style="stroke-width:0.377953;stroke-dasharray:none" />
    <polyline
       points="44.262905,30.299234 44.24944,30.258831 44.24944,30.305967 44.397575,30.454111 44.59285,30.561848 44.821785,30.63592 45.333538,30.74366 45.474937,30.804262 45.562477,30.871601 45.67021,30.986076 45.973213,31.221752 46.202164,31.329494 46.431103,31.470905 46.65331,31.524769 46.915913,31.551704"
       stroke="#a52a2a"
       stroke-width="1"
       fill="none"
       id="polyline1785"
       style="stroke-width:0.377953;stroke-dasharray:none" />
    <polyline
       points="44.80832,30.68306 44.794853,30.629187 44.996864,30.58205 45.2864,30.595516 45.64328,30.63592 46.00689,30.629187 46.269493,30.602255 46.437836,30.689789 46.599434,31.120749 46.646576,31.289085 46.761036,31.430496 47.010185,31.672913 47.34012,31.861458 47.663326,31.98266 47.939407,32.023067 48.188545,32.023067 48.38382,32.05 48.538685,32.157738 48.767624,32.541565"
       stroke="#a52a2a"
       stroke-width="1"
       fill="none"
       id="polyline1787"
       style="stroke-width:0.377953;stroke-dasharray:none" />
    <polyline
       points="46.067486,31.073612 45.91935,31.06688 45.818348,31.167885 46.05402,31.363163 46.585968,31.524769 47.824936,31.652714 48.24241,31.726784 48.558884,31.93553 48.747425,32.15101 48.96963,32.581963 49.090836,32.86478 49.265907,33.04659 49.541977,33.214928 49.86519,33.241863 50.208595,33.31594 50.55874,33.47755 50.868484,33.699764 51.077225,33.915234 51.521637,34.204784 51.831367,34.305794 51.99971,34.386597"
       stroke="#a52a2a"
       stroke-width="1"
       fill="none"
       id="polyline1789"
       style="stroke-width:0.377953;stroke-dasharray:none" />
    <polyline
       points="53.47435,34.9657 53.090534,34.952225 52.747124,34.770424 52.215187,34.325996 51.36676,33.71996 51.06376,33.423676 50.828075,33.322674 50.067196,33.161064 49.63625,33.033123 48.424217,32.57523 47.771065,32.501152 46.444557,32.501152 46.181953,32.41362"
       stroke="#a52a2a"
       stroke-width="1"
       fill="none"
       id="polyline1791"
       style="stroke-width:0.377953;stroke-dasharray:none" />
    <polyline
       points="45.246002,30.885067 45.0844,30.817728 45.198868,31.026474 45.562477,31.376629 46.208885,31.720047 47.09098,32.023067 47.979805,32.305885 48.86863,32.783974 49.057167,32.918644"
       stroke="#a52a2a"
       stroke-width="1"
       fill="none"
       id="polyline1793"
       style="stroke-width:0.377953;stroke-dasharray:none" />
    <polyline
       points="54.302567,35.14077 54.026497,35.181168 53.952427,35.275444 54.134235,35.450523 54.208305,35.450523"
       stroke="#a52a2a"
       stroke-width="1"
       fill="none"
       id="polyline1795"
       style="stroke-width:0.377953;stroke-dasharray:none" />
    <polyline
       points="54.450714,35.84108 54.544983,35.84108"
       stroke="#a52a2a"
       stroke-width="1"
       fill="none"
       id="polyline1797"
       style="stroke-width:0.377953;stroke-dasharray:none" />
    <polyline
       points="55.029793,35.645798 55.103867,35.55826 55.097122,35.51113 54.97593,35.524593 54.83452,35.753536 54.76719,35.969017 54.780655,36.076756 54.94899,36.14409 55.083664,36.14409"
       stroke="#a52a2a"
       stroke-width="1"
       fill="none"
       id="polyline1799"
       style="stroke-width:0.377953;stroke-dasharray:none" />
    <polyline
       points="54.107304,35.67947 54.05343,35.45726 53.999565,35.403385 53.945694,35.612137 53.945694,35.740074 54.026497,35.948814 54.268906,36.063293 54.55845,36.063293 54.77391,35.868015 54.821053,35.666008 54.713318,35.57173 54.531517,35.6054 54.336243,35.820877 54.235237,36.09696 54.228508,36.150833"
       stroke="#000000"
       stroke-width="1"
       fill="none"
       id="polyline1801"
       style="stroke-width:0.377953;stroke-dasharray:none" />
    <polyline
       points="56.15429,36.93867 56.15429,36.790527 56.11389,36.48751 55.999413,36.399975 55.757008,36.413445 55.514603,36.61545 55.359734,36.790527 55.359734,36.804 55.985947,36.9858"
       stroke="#000000"
       stroke-width="1"
       fill="none"
       id="polyline1803"
       style="stroke-width:0.377953;stroke-dasharray:none" />
    <polyline
       points="56.578503,36.770332 56.4573,36.743397 56.416893,36.844402 56.443825,37.059883 56.605434,37.22149 56.80071,37.248425 56.982506,37.201286 57.049847,37.14068 56.94211,37.107014 56.6391,37.113743 56.43709,37.234955 56.396694,37.53124 56.4573,37.59184"
       stroke="#000000"
       stroke-width="1"
       fill="none"
       id="polyline1805"
       style="stroke-width:0.377953;stroke-dasharray:none" />
    <polyline
       points="57.554855,37.739986 57.50099,37.71978 57.50099,37.699585 57.676056,37.59184 57.851135,37.416767 57.965603,37.22149 57.97907,37.04641 57.83767,36.979073 57.622192,37.08008 57.406723,37.36963 57.366325,37.63225 57.460587,37.71978"
       stroke="#000000"
       stroke-width="1"
       fill="none"
       id="polyline1807"
       style="stroke-width:0.377953;stroke-dasharray:none" />
    <polyline
       points="58.73996,37.787117 58.63222,37.679382 58.63222,37.71305 58.719757,37.80732 58.83422,37.83426 58.995827,37.80732 59.083366,37.69284 59.096832,37.645714 59.076633,37.645714 59.063168,37.98239 59.103565,38.170937"
       stroke="#000000"
       stroke-width="1"
       fill="none"
       id="polyline1809"
       style="stroke-width:0.377953;stroke-dasharray:none" />
    <polyline
       points="60.254993,38.521095 60.032787,38.561493 60.147266,38.46722 60.16072,38.406624 60.113594,38.38642 59.94525,38.46722 59.82406,38.68943 59.790382,38.925117 59.891388,39.07999"
       stroke="#000000"
       stroke-width="1"
       fill="none"
       id="polyline1811"
       style="stroke-width:0.377953;stroke-dasharray:none" />
    <polyline
       points="60.780212,39.36954 60.632065,39.38301 60.54454,39.41668 60.652275,39.41668 60.84754,39.356075 60.968742,39.21467 60.982216,39.160797 60.89468,39.234867 60.813873,39.47728 60.82734,39.726425 61.009148,39.861107"
       stroke="#000000"
       stroke-width="1"
       fill="none"
       id="polyline1813"
       style="stroke-width:0.377953;stroke-dasharray:none" />
    <polyline
       points="62.227917,40.05638 62.200985,39.847633 62.200985,39.921707 62.187508,39.921707 62.05284,39.780296 62.066307,40.049652 62.187508,40.305523"
       stroke="#000000"
       stroke-width="1"
       fill="none"
       id="polyline1815"
       style="stroke-width:0.377953;stroke-dasharray:none" />
    <polyline
       points="31.112362,25.65971 31.01136,25.65971 31.381702,25.700111 31.496172,25.727043 31.651041,25.727043 31.752045,25.679909 31.77898,25.585642 31.70491,25.484634 31.543308,25.491367 31.43557,25.713577 31.469238,26.003128 31.70491,26.252274"
       stroke="#000000"
       stroke-width="1"
       fill="none"
       id="polyline1817"
       style="stroke-width:0.377953;stroke-dasharray:none" />
    <polyline
       points="34.250175,25.875187 34.122242,25.854988 34.189575,26.030064 34.290577,26.117607"
       stroke="#000000"
       stroke-width="1"
       fill="none"
       id="polyline1819"
       style="stroke-width:0.377953;stroke-dasharray:none" />
    <polyline
       points="34.108776,25.51157 33.940437,25.471163 33.83943,25.504833 34.061638,25.794382 34.297314,25.89539"
       stroke="#000000"
       stroke-width="1"
       fill="none"
       id="polyline1821"
       style="stroke-width:0.377953;stroke-dasharray:none" />
    <polyline
       points="35.731552,26.063732 35.65748,26.030064 35.697884,26.285944 35.839287,26.481224 35.98069,26.60243 36.12883,26.588964 36.236565,26.44082 36.25003,26.285944 36.14903,26.171474 36.05476,26.164738 36.01436,26.34655 36.04129,26.528358 36.142296,26.696701 36.196163,26.710167"
       stroke="#000000"
       stroke-width="1"
       fill="none"
       id="polyline1823"
       style="stroke-width:0.377953;stroke-dasharray:none" />
    <polyline
       points="38.465355,27.073788 38.458622,27.053589 38.26335,26.952581 38.142147,26.93911 37.987278,26.979519 37.765068,27.248863 37.765068,27.269068 37.872807,27.174793 38.169083,26.831375 38.07481,26.93911 37.987278,27.235397 38.05461,27.524948 38.28355,27.69329 38.451885,27.720226"
       stroke="#000000"
       stroke-width="1"
       fill="none"
       id="polyline1825"
       style="stroke-width:0.377953;stroke-dasharray:none" />
    <polyline
       points="39.192574,26.871777 39.14544,26.871777 39.098305,27.06705 39.172375,27.322937 39.333977,27.437405 39.495583,27.444143 39.670654,27.34314 39.630253,27.39027"
       stroke="#000000"
       stroke-width="1"
       fill="none"
       id="polyline1827"
       style="stroke-width:0.377953;stroke-dasharray:none" />
    <polyline
       points="26.331568,23.296183 26.02856,23.228838 25.96796,23.181707 26.351772,23.17497 26.796185,23.100903 26.897182,23.067228 26.991447,22.912357 27.00492,22.737282 26.796185,22.602608 26.459507,22.548735 26.149765,22.703611 26.008362,22.966225 26.02856,23.255775"
       stroke="#000000"
       stroke-width="1"
       fill="none"
       id="polyline1829"
       style="stroke-width:0.377953;stroke-dasharray:none" />
    <polyline
       points="24.782864,21.30973 24.883862,21.484812 24.991598,21.821497 25.159935,22.016771 25.274406,22.043707 25.395613,21.73396 25.415812,21.377075 25.267673,21.15486 25.139736,21.16833 24.998337,21.464607 24.991598,21.787827"
       stroke="#000000"
       stroke-width="1"
       fill="none"
       id="polyline1831"
       style="stroke-width:0.377953;stroke-dasharray:none" />
    <polyline
       points="23.213955,20.872042 23.119682,20.851843 23.26109,20.946114 23.362087,20.986517 23.463093,20.986517 23.341888,20.959585 23.146614,20.959585 22.964811,21.013453 22.870544,21.181791 22.863811,21.262596"
       stroke="#000000"
       stroke-width="1"
       fill="none"
       id="polyline1833"
       style="stroke-width:0.377953;stroke-dasharray:none" />
    <polyline
       points="21.746046,19.909122 21.665247,19.84852 21.658514,19.915855 21.894188,20.117867 22.210659,20.205404 22.40593,20.111134 22.446331,19.855253 22.365532,19.572437 22.096191,19.370424 21.80665,19.350225 21.671978,19.565704 21.631577,19.888918 21.786451,20.131332"
       stroke="#000000"
       stroke-width="1"
       fill="none"
       id="polyline1835"
       style="stroke-width:0.377953;stroke-dasharray:none" />
    <polyline
       points="20.029003,18.784592 19.948198,18.764389 19.948198,18.85193 20.055935,19.087612 20.257942,19.202087 20.453215,19.22902 20.574417,19.074142 20.587885,18.899067 20.48688,18.804796 20.325277,18.750927 20.156939,18.892328 20.02227,19.208815 19.995337,19.511835"
       stroke="#000000"
       stroke-width="1"
       fill="none"
       id="polyline1837"
       style="stroke-width:0.377953;stroke-dasharray:none" />
    <polyline
       points="18.237888,18.266098 17.921413,18.239162 17.955078,18.400772 18.197489,18.521975 18.493763,18.468111 18.742903,18.171827 18.823702,17.78127 18.729437,17.505186 18.500496,17.518656 18.217688,17.895744 18.136887,18.272831"
       stroke="#000000"
       stroke-width="1"
       fill="none"
       id="polyline1839"
       style="stroke-width:0.377953;stroke-dasharray:none" />
    <polyline
       points="16.029299,16.57594 15.982162,16.589401"
       stroke="#000000"
       stroke-width="1"
       fill="none"
       id="polyline1841"
       style="stroke-width:0.377953;stroke-dasharray:none" />
    <polyline
       points="16.217834,16.535532 16.05623,16.495134 16.009098,16.582668 15.961962,16.838552 15.988898,16.966494 16.083164,16.97996 16.177433,16.825083 16.211102,16.623075 16.143768,16.54227 16.049498,16.535532 15.914826,16.636536 15.840759,16.730812 15.847492,16.811617"
       stroke="#000000"
       stroke-width="1"
       fill="none"
       id="polyline1843"
       style="stroke-width:0.377953;stroke-dasharray:none" />
    <polyline
       points="14.601793,15.296528 14.514256,15.296528 14.130447,15.505274 13.989043,15.82176 13.995779,15.9362335 14.211249,15.922768 14.467123,15.660154 14.615259,15.323465 14.655662,15.0406475 14.568124,14.858839 14.393055,14.845373 14.217982,15.074318"
       stroke="#000000"
       stroke-width="1"
       fill="none"
       id="polyline1845"
       style="stroke-width:0.377953;stroke-dasharray:none" />
    <polyline
       points="13.40996,14.057529 12.777012,14.064262 12.588474,14.232605 12.655809,14.219139 12.763543,13.929588 12.851081,13.424561 12.817411,12.939732 12.709675,12.818525 12.60194,12.986868 12.534607,13.505365 12.554806,13.781445"
       stroke="#000000"
       stroke-width="1"
       fill="none"
       id="polyline1847"
       style="stroke-width:0.377953;stroke-dasharray:none" />
    <polyline
       points="10.528019,13.0138035 10.541487,13.16868 10.6424885,13.458225 10.87816,13.720839 11.174436,13.767979 11.362974,13.532303 11.470709,13.054207 11.356241,12.643454 11.080168,12.421238 10.75696,12.461636 10.467417,12.7983265 10.218277,13.276417 10.1711445,13.464964"
       stroke="#000000"
       stroke-width="1"
       fill="none"
       id="polyline1849"
       style="stroke-width:0.377953;stroke-dasharray:none" />
    <polyline
       points="9.006245,11.741135 8.696504,11.720932 8.575301,11.929676 8.528166,12.401039 8.608971,12.717522 8.716705,12.778122 8.851374,12.576111 9.039915,12.023947 9.134183,11.936409"
       stroke="#000000"
       stroke-width="1"
       fill="none"
       id="polyline1851"
       style="stroke-width:0.377953;stroke-dasharray:none" />
    <polyline
       points="6.824589,10.158709 6.716852,10.380924 6.7101192,10.66374 6.891923,10.798414 7.060261,10.710876 7.1747303,10.380924 7.2016644,10.057705 7.127595,9.909565 7.0333266,9.882629 6.96599,9.99037 6.9323254,10.40786"
       stroke="#000000"
       stroke-width="1"
       fill="none"
       id="polyline1853"
       style="stroke-width:0.377953;stroke-dasharray:none" />
    <polyline
       points="5.376885,8.401211 5.329747,8.434879 5.2624154,8.6772995 5.2624154,8.811972 5.329747,8.818701 5.477886,8.717697 5.626023,8.549358 5.5990887,8.367546 5.376885,8.286741 4.9257374,8.219402 4.6159983,8.306944 4.4611263,8.502218 4.420724,8.72443 4.4543934,8.798502"
       stroke="#000000"
       stroke-width="1"
       fill="none"
       id="polyline1855"
       style="stroke-width:0.377953;stroke-dasharray:none" />
    <polyline
       points="3.2827616,6.333964 3.2221603,6.5090394 3.2288933,6.758187 3.3366299,6.859195 3.4915018,6.791861 3.5319018,6.5629077 3.5184336,6.3541627 3.397231,6.273358 3.3029604,6.2868285 3.1480908,6.5629077 2.898953,7.5190997"
       stroke="#000000"
       stroke-width="1"
       fill="none"
       id="polyline1857"
       style="stroke-width:0.377953;stroke-dasharray:none" />
    <polyline
       points="2.2727346,5.7279325 2.0235944,5.983808 1.9023895,6.448438 1.8889236,6.690848 2.0505285,6.583116"
       stroke="#000000"
       stroke-width="1"
       fill="none"
       id="polyline1859"
       style="stroke-width:0.377953;stroke-dasharray:none" />
    <polyline
       points="1.9562578,4.8390794 1.5657163,4.7380757 1.3031101,4.926622 1.296376,5.2161717"
       stroke="#000000"
       stroke-width="1"
       fill="none"
       id="polyline1861"
       style="stroke-width:0.377953;stroke-dasharray:none" />
    <polyline
       points="6.5552473,9.175589 6.070435,9.15539 6.043501,9.424736 6.2253046,9.970167 6.487913,10.340521 6.656251,10.380924"
       stroke="#a52a2a"
       stroke-width="1"
       fill="none"
       id="polyline1863"
       style="stroke-width:0.377953;stroke-dasharray:none" />
    <polyline
       points="5.5586886,8.758104 5.5452204,8.758104 6.137769,9.519012 6.467712,9.734486"
       stroke="#a52a2a"
       stroke-width="1"
       fill="none"
       id="polyline1865"
       style="stroke-width:0.377953;stroke-dasharray:none" />
    <polyline
       points="5.4711533,7.566235 5.282614,7.5460315 5.25568,7.8355813 5.3364825,8.421413 5.5048203,9.128458 5.5923557,9.646952"
       stroke="#a52a2a"
       stroke-width="1"
       fill="none"
       id="polyline1867"
       style="stroke-width:0.377953;stroke-dasharray:none" />
    <polyline
       points="2.9999542,7.5392985 2.8450847,7.498896 3.0066895,7.586434 3.3366299,7.579701"
       stroke="#a52a2a"
       stroke-width="1"
       fill="none"
       id="polyline1869"
       style="stroke-width:0.377953;stroke-dasharray:none" />
    <polyline
       points="10.992632,12.69059 10.945497,12.609785 11.012831,12.569378 11.275436,12.86566 11.41011,13.370693 11.423576,13.626574"
       stroke="#a52a2a"
       stroke-width="1"
       fill="none"
       id="polyline1871"
       style="stroke-width:0.377953;stroke-dasharray:none" />
    <polyline
       points="10.420282,12.858927 10.999365,12.831991 11.867986,12.818525"
       stroke="#a52a2a"
       stroke-width="1"
       fill="none"
       id="polyline1873"
       style="stroke-width:0.377953;stroke-dasharray:none" />
    <polyline
       points="15.1337385,13.922855 15.174141,14.023859 15.261677,14.602959 15.254944,15.054119"
       stroke="#a52a2a"
       stroke-width="1"
       fill="none"
       id="polyline1875"
       style="stroke-width:0.377953;stroke-dasharray:none" />
    <polyline
       points="15.019272,14.56929 14.99907,14.522154 15.881162,14.926178"
       stroke="#a52a2a"
       stroke-width="1"
       fill="none"
       id="polyline1877"
       style="stroke-width:0.377953;stroke-dasharray:none" />
    <polyline
       points="17.726143,17.006891 17.68574,16.986692 17.806946,17.323378 17.975283,17.572525 18.04935,17.626398"
       stroke="#a52a2a"
       stroke-width="1"
       fill="none"
       id="polyline1879"
       style="stroke-width:0.377953;stroke-dasharray:none" />
    <polyline
       points="17.60494,16.468199 17.89448,16.5288 18.52743,16.825083 18.992043,16.946295"
       stroke="#a52a2a"
       stroke-width="1"
       fill="none"
       id="polyline1881"
       style="stroke-width:0.377953;stroke-dasharray:none" />
    <polyline
       points="20.850489,19.552233 20.830288,19.552233 20.749489,19.915855 20.944763,20.346815 21.146765,20.488222 21.214102,20.488222"
       stroke="#a52a2a"
       stroke-width="1"
       fill="none"
       id="polyline1883"
       style="stroke-width:0.377953;stroke-dasharray:none" />
    <polyline
       points="21.618109,19.020273 22.661804,19.532034 23.26109,19.99666"
       stroke="#a52a2a"
       stroke-width="1"
       fill="none"
       id="polyline1885"
       style="stroke-width:0.377953;stroke-dasharray:none" />
    <text
       x="72.301247"
       y="48.527393"
       stroke="BLACK"
       id="text1887"
       style="font-size:5.33333px;stroke:none">knochen</text>
    <text
       x="61.056282"
       y="42.722927"
       stroke="BLACK"
       id="text1889"
       style="font-size:5.33333px;stroke:none">knochen</text>
  </g>
  <polyline
     points="32.49844,24.301996,27.461546,24.562904"
     stroke="#ff0000"
     stroke-width="1"
     fill="none"
     id="polyline1892"
     style="stroke-width:0.377953;stroke-dasharray:none"
     transform="translate(-17.220881,-18.972403)" />
  <polyline
     points="64.702835,39.731846,61.88633,35.05395"
     stroke="#ff0000"
     stroke-width="1"
     fill="none"
     id="polyline1894"
     style="stroke-width:0.377953;stroke-dasharray:none"
     transform="translate(-17.220881,-18.972403)" />
  <polyline
     points="32.49844,24.301996,19.564957,13.854818"
     stroke="#ff0000"
     stroke-width="1"
     fill="none"
     id="polyline1896"
     style="stroke-width:0.377953;stroke-dasharray:none"
     transform="translate(-17.220881,-18.972403)" />
  <polyline
     points="32.49844,24.301996,28.84055,17.8511"
     stroke="#ff0000"
     stroke-width="1"
     fill="none"
     id="polyline1898"
     style="stroke-width:0.377953;stroke-dasharray:none"
     transform="translate(-17.220881,-18.972403)" />
  <polyline
     points="64.702835,39.731846,63.66787,31.165741"
     stroke="#ff0000"
     stroke-width="1"
     fill="none"
     id="polyline1900"
     style="stroke-width:0.377953;stroke-dasharray:none"
     transform="translate(-17.220881,-18.972403)" />
  <polyline
     points="32.49844,24.301996,64.702835,39.731846"
     stroke="#ff0000"
     stroke-width="2"
     fill="none"
     id="polyline1902"
     style="stroke-width:0.566929;stroke-dasharray:none"
     transform="translate(-17.220881,-18.972403)" />
  <polyline
     points="64.702835,39.731846,57.890038,36.83143"
     stroke="#ff0000"
     stroke-width="1"
     fill="none"
     id="polyline1904"
     style="stroke-width:0.377953;stroke-dasharray:none"
     transform="translate(-17.220881,-18.972403)" />
  <polyline
     points="0.0,-0.0,-1.3080312,2.8496356"
     stroke="#ff0000"
     stroke-width="1"
     fill="none"
     id="polyline1906"
     style="stroke-width:0.377953;stroke-dasharray:none"
     transform="translate(-17.220881,-18.972403)" />
  <polyline
     points="64.702835,39.731846,62.965385,31.495312"
     stroke="#ff0000"
     stroke-width="1"
     fill="none"
     id="polyline1908"
     style="stroke-width:0.377953;stroke-dasharray:none"
     transform="translate(-17.220881,-18.972403)" />
  <polyline
     points="0.0,-0.0,32.49844,24.301996"
     stroke="#ff0000"
     stroke-width="2"
     fill="none"
     id="polyline1910"
     style="stroke-width:0.566929;stroke-dasharray:none"
     transform="translate(-17.220881,-18.972403)" />
  <polyline
     points="64.702835,39.731846,89.5092,42.556423"
     stroke="#ff0000"
     stroke-width="2"
     fill="none"
     id="polyline1912"
     style="stroke-width:0.566929;stroke-dasharray:none"
     transform="translate(-17.220881,-18.972403)" />
  <polyline
     points="32.49844,24.301996,45.6588,27.736778"
     stroke="#ff0000"
     stroke-width="1"
     fill="none"
     id="polyline1914"
     style="stroke-width:0.377953;stroke-dasharray:none"
     transform="translate(-17.220881,-18.972403)" />
  <polyline
     points="64.702835,39.731846,65.108055,39.68221"
     stroke="#ff0000"
     stroke-width="1"
     fill="none"
     id="polyline1916"
     style="stroke-width:0.377953;stroke-dasharray:none"
     transform="translate(-17.220881,-18.972403)" />
  <polyline
     points="0.0,-0.0,-0.27868736,-0.16532525"
     stroke="#ff0000"
     stroke-width="1"
     fill="none"
     id="polyline1918"
     style="stroke-width:0.377953;stroke-dasharray:none"
     transform="translate(-17.220881,-18.972403)" />
  <polyline
     points="32.49844,24.301996,4.835558,10.763197"
     stroke="#ff0000"
     stroke-width="1"
     fill="none"
     id="polyline1920"
     style="stroke-width:0.377953;stroke-dasharray:none"
     transform="translate(-17.220881,-18.972403)" />
  <polyline
     points="0.0,-0.0,-0.8181727,5.412235"
     stroke="#ff0000"
     stroke-width="1"
     fill="none"
     id="polyline1922"
     style="stroke-width:0.377953;stroke-dasharray:none"
     transform="translate(-17.220881,-18.972403)" />
  <polyline
     points="32.49844,24.301996,20.014591,19.75645"
     stroke="#ff0000"
     stroke-width="1"
     fill="none"
     id="polyline1924"
     style="stroke-width:0.377953;stroke-dasharray:none"
     transform="translate(-17.220881,-18.972403)" />
</svg>
