<?xml version="1.0" encoding="UTF-8" standalone="no"?>
<svg
   width="66.3564"
   height="78.988113"
   viewBox="-30 -80 66.356399 78.988113"
   version="1.1"
   id="svg382"
   sodipodi:docname="wetzelsberg.plan.svg"
   inkscape:version="1.2.2 (b0a8486541, 2022-12-01)"
   inkscape:export-filename="wetzelsberg.plan.png"
   inkscape:export-xdpi="610.90912"
   inkscape:export-ydpi="610.90912"
   xmlns:inkscape="http://www.inkscape.org/namespaces/inkscape"
   xmlns:sodipodi="http://sodipodi.sourceforge.net/DTD/sodipodi-0.dtd"
   xmlns="http://www.w3.org/2000/svg"
   xmlns:svg="http://www.w3.org/2000/svg">
  <defs
     id="defs386" />
  <sodipodi:namedview
     id="namedview384"
     pagecolor="#ffffff"
     bordercolor="#666666"
     borderopacity="1.0"
     inkscape:showpageshadow="2"
     inkscape:pageopacity="0.0"
     inkscape:pagecheckerboard="0"
     inkscape:deskcolor="#d1d1d1"
     showgrid="false"
     inkscape:zoom="5.3047248"
     inkscape:cx="68.71233"
     inkscape:cy="54.38548"
     inkscape:current-layer="svg382" />
  <g
     id="sketch"
     transform="translate(-17.56649,-14.178565)">
    <polyline
       points="-2.6666641,13.000011 -2.6666641,13.166676"
       stroke="#000000"
       stroke-width="1"
       fill="none"
       id="polyline2"
       style="stroke-width:0.377953;stroke-dasharray:none" />
    <polyline
       points="-0.11390686,-2.49053 -0.10002136,-1.3657951 0.059661865,-0.5882025"
       stroke="#000000"
       stroke-width="1"
       fill="none"
       id="polyline4"
       style="stroke-width:0.377953;stroke-dasharray:none" />
    <polyline
       points="3.2671356,0.3837824 3.4406996,0.2865839 2.9547167,-0.5326605 2.8228092,-1.0672522 2.4756765,-1.7129374 2.37154,-2.4419308 2.1563196,-3.1084394 2.0868921,-3.8721466 1.4273453,-5.968871 1.2537813,-8.058648 0.9969044,-9.30141 0.84416866,-12.342353 0.5039835,-14.279394 0.12214184,-17.604996 0.011057854,-19.59063 -1.1900091,-26.061316 -1.4399409,-27.01942 -1.8703842,-27.935871 -2.064774,-29.379969 -1.9189811,-29.942337"
       stroke="#000000"
       stroke-width="1"
       fill="none"
       id="polyline6"
       style="stroke-width:0.377953;stroke-dasharray:none" />
    <polyline
       points="-6.9037604,-0.47711372 -6.966243,-1.0672522 -6.889875,-1.8795633 -7.2786593,-5.642557 -7.292545,-8.107247 -7.3758554,-8.621016 -8.597751,-11.821647 -9.458632,-13.4462595 -9.937673,-14.66125 -10.451422,-15.4527235 -10.583334,-16.042862 -10.597218,-17.40365 -10.291743,-19.521202 -9.909902,-21.208305 -9.500289,-22.458004"
       stroke="#000000"
       stroke-width="1"
       fill="none"
       id="polyline8"
       style="stroke-width:0.377953;stroke-dasharray:none" />
    <polyline
       points="-9.708567,-23.110628 -9.653025,-23.103685 -9.625254,-23.180056 -9.597485,-23.735481 -9.541943,-24.013191 -9.035137,-25.485062 -8.764374,-26.089087 -8.632464,-26.519537 -8.333933,-27.720646 -8.236737,-28.407978 -7.8132415,-30.386677 -7.5771904,-31.19204"
       stroke="#000000"
       stroke-width="1"
       fill="none"
       id="polyline10"
       style="stroke-width:0.377953;stroke-dasharray:none" />
    <polyline
       points="-3.1547618,-45.723305 -3.3144426,-45.75802 -3.9045596,-45.75802 -4.4183135,-45.938534 -4.758501,-45.98019 -5.008433,-45.92465 -5.5499554,-45.896877 -5.7790613,-45.82745 -6.1053634,-45.87605 -6.9801307,-45.862164 -7.6743865,-45.709423 -7.792411,-45.515022 -7.8896093,-45.13317 -7.8896093,-44.98043 -7.7368712,-44.08481 -7.76464,-43.550217 -8.347818,-41.821457 -8.382532,-41.59234 -8.521383,-41.18966 -8.639407,-41.009148 -8.736603,-40.675896 -8.951824,-39.83582 -9.014306,-38.97491 -8.812973,-38.34312 -8.465843,-37.558586 -8.368647,-37.22533 -8.042345,-36.69073 -7.917378,-36.315823 -7.8062963,-34.97586 -7.6605034,-34.434326 -7.563305,-33.753933 -7.549422,-33.434566 -7.6605034,-32.594486"
       stroke="#000000"
       stroke-width="1"
       fill="none"
       id="polyline12"
       style="stroke-width:0.377953;stroke-dasharray:none" />
    <polyline
       points="-6.7024255,-44.46666 -6.709366,-44.341694 -6.5982866,-43.841812 -6.4802623,-43.73073 -6.3761234,-43.68907 -6.2164426,-43.702957 -6.0706496,-43.78627 -6.0012245,-43.9529 -5.7929444,-44.619408 -5.7860017,-44.744377 -5.8693147,-44.8138 -6.008165,-44.862404 -6.188674,-44.862404 -6.383066,-44.70272 -6.5427446,-44.52221 -6.563573,-44.418068"
       stroke="#000000"
       stroke-width="1"
       fill="none"
       id="polyline14"
       style="stroke-width:0.377953;stroke-dasharray:none" />
    <polyline
       points="-7.16758,-42.869816 -7.3342013,-42.786503 -7.368915,-42.189426 -7.3272586,-42.17554 -7.1259212,-42.189426 -6.7996216,-42.265797 -6.5149736,-42.362995 -6.2997556,-42.52962 -6.1956167,-42.75179 -6.1956167,-42.932304 -6.2233877,-43.05033 -6.327524,-43.140594 -6.5358043,-43.161423 -6.917646,-43.140594 -7.2231197,-42.94619 -7.320316,-42.647648 -7.3064303,-42.564335"
       stroke="#000000"
       stroke-width="1"
       fill="none"
       id="polyline16"
       style="stroke-width:0.377953;stroke-dasharray:none" />
    <polyline
       points="-7.5910783,-41.203545 -7.716043,-40.932777 -7.743814,-40.717552 -7.743814,-40.592583 -7.716043,-40.543983 -7.639675,-40.543983 -7.473054,-40.641182 -7.313373,-40.76615 -7.1745205,-40.88418 -7.0981526,-41.04386 -7.063439,-41.231323 -7.1050954,-41.439598 -7.2578335,-41.65483 -7.417512,-41.779804 -7.514708,-41.79369 -7.549422,-41.74509 -7.43834,-41.578465 -7.264774,-41.55069"
       stroke="#000000"
       stroke-width="1"
       fill="none"
       id="polyline18"
       style="stroke-width:0.377953;stroke-dasharray:none" />
    <polyline
       points="-4.8695827,-44.688835 -4.834869,-44.688835 -4.834869,-44.57081 -4.800155,-44.390293 -4.6890736,-44.21672 -4.571049,-44.133408 -4.4669104,-44.10564 -4.355829,-44.119526 -4.2308617,-44.230606 -4.182265,-44.32781 -4.1683793,-44.438896 -4.182265,-44.62635 -4.2378044,-44.730488 -4.307232,-44.938774 -4.3905425,-45.112343 -4.4807982,-45.154 -4.571049,-44.98043 -4.6960163,-44.445835 -4.7376704,-44.04315 -4.7446156,-43.723785"
       stroke="#000000"
       stroke-width="1"
       fill="none"
       id="polyline20"
       style="stroke-width:0.377953;stroke-dasharray:none" />
    <polyline
       points="-5.904026,-42.918415 -6.084535,-42.765675 -6.2789273,-42.390766 -6.2997556,-42.092228 -6.091478,-41.84923 -5.9873366,-41.70343 -5.904026,-41.529865 -5.8415437,-41.439598 -5.7235193,-41.432663 -5.2653074,-41.890884 -5.008433,-42.113056 -4.626591,-42.265797 -4.5224524,-42.342167 -4.4252563,-42.48102 -4.133668,-43.223907 -4.154494,-43.55716 -4.2864037,-43.6613 -4.4807982,-43.6613 -4.772384,-43.598816 -5.1403427,-43.48079 -5.5777264,-43.376648 -5.9526253,-43.223907 -6.1956167,-43.182243 -5.994282,-42.980904"
       stroke="#000000"
       stroke-width="1"
       fill="none"
       id="polyline22"
       style="stroke-width:0.377953;stroke-dasharray:none" />
    <polyline
       points="-6.55663,-41.210487 -6.716311,-41.175774 -6.931529,-40.99527 -7.2994876,-40.314873 -7.43834,-40.099648 -7.5077653,-39.946903 -7.473054,-39.919132 -7.209234,-39.926075 -6.8968153,-39.870533 -6.653826,-39.905247 -6.390009,-40.085762 -6.1400747,-40.314873 -5.959568,-40.530098 -5.8484864,-40.627296 -5.8484864,-40.675896 -5.910969,-40.73838 -6.3969493,-40.86335 -6.5705156,-40.870293 -6.7232537,-40.84252 -6.737137,-40.81475"
       stroke="#000000"
       stroke-width="1"
       fill="none"
       id="polyline24"
       style="stroke-width:0.377953;stroke-dasharray:none" />
    <polyline
       points="-8.4589,-38.606945 -8.417246,-38.273693 -8.292276,-38.04458 -7.9312634,-37.954323 -7.7576995,-37.961266 -7.646618,-38.030693 -7.5077653,-38.405605 -7.2022915,-38.801346 -7.1050954,-39.016567 -7.0912123,-39.25263 -7.2022915,-39.509506 -7.4036264,-39.717793 -7.5285935,-39.773335 -7.563305,-39.773335 -7.5077653,-39.780277"
       stroke="#000000"
       stroke-width="1"
       fill="none"
       id="polyline26"
       style="stroke-width:0.377953;stroke-dasharray:none" />
    <polyline
       points="-1.6273904,-29.91457 -1.7315292,-29.87291 -1.738472,-30.386677 -1.6898751,-30.601902 -1.5718508,-30.77547 -1.1066985,-31.997404 -0.89147806,-32.32372 -0.8151102,-32.50423 -0.27358532,-34.22604 -0.1347351,-34.781464 0.12907982,-35.295227 0.44149876,-35.670143 0.6567192,-36.01728 0.9274769,-36.572704 1.0455084,-36.73933 1.4759445,-38.204266 2.4270773,-39.842762 2.663126,-40.446785 2.8852892,-41.175774"
       stroke="#000000"
       stroke-width="1"
       fill="none"
       id="polyline28"
       style="stroke-width:0.377953;stroke-dasharray:none" />
    <polyline
       points="1.2121296,-56.574898 1.1079884,-56.172215 1.0455084,-55.63762 0.95525265,-55.165512 0.95525265,-54.78366 1.0177326,-54.686455 1.0941029,-54.610085"
       stroke="#000000"
       stroke-width="1"
       fill="none"
       id="polyline30"
       style="stroke-width:0.377953;stroke-dasharray:none" />
    <polyline
       points="-2.2730517,-46.688354 -2.5299287,-46.716125 -2.446618,-46.688354"
       stroke="#000000"
       stroke-width="1"
       fill="none"
       id="polyline32"
       style="stroke-width:0.377953;stroke-dasharray:none" />
    <polyline
       points="-1.8356705,-46.37593 -1.7801285,-46.334274 -1.7523599,-46.230133"
       stroke="#000000"
       stroke-width="1"
       fill="none"
       id="polyline34"
       style="stroke-width:0.377953;stroke-dasharray:none" />
    <polyline
       points="-0.83593845,-45.515022 -0.9331322,-45.48725 -0.91924906,-45.424767"
       stroke="#000000"
       stroke-width="1"
       fill="none"
       id="polyline36"
       style="stroke-width:0.377953;stroke-dasharray:none" />
    <polyline
       points="-0.016713142,-45.154 -0.06530762,-45.140114 -0.10002136,-45.063744"
       stroke="#000000"
       stroke-width="1"
       fill="none"
       id="polyline38"
       style="stroke-width:0.377953;stroke-dasharray:none" />
    <polyline
       points="1.1774158,-44.883232 1.1427021,-44.77215"
       stroke="#000000"
       stroke-width="1"
       fill="none"
       id="polyline40"
       style="stroke-width:0.377953;stroke-dasharray:none" />
    <polyline
       points="2.1146631,-44.126465 2.0105267,-44.09175"
       stroke="#000000"
       stroke-width="1"
       fill="none"
       id="polyline42"
       style="stroke-width:0.377953;stroke-dasharray:none" />
    <polyline
       points="2.9408312,-43.11976 2.8366947,-43.12671 2.8366947,-43.14753"
       stroke="#000000"
       stroke-width="1"
       fill="none"
       id="polyline44"
       style="stroke-width:0.377953;stroke-dasharray:none" />
    <polyline
       points="2.8505754,-42.279682 2.6839542,-42.217197 2.77421,-42.161655"
       stroke="#000000"
       stroke-width="1"
       fill="none"
       id="polyline46"
       style="stroke-width:0.377953;stroke-dasharray:none" />
    <polyline
       points="9.973674,-61.490395 9.501581,-61.65702 9.022541,-61.705624 8.217201,-61.712566 7.481284,-61.643135 6.738429,-61.615364 6.196904,-61.469566 5.9539175,-61.45568 5.2735424,-61.511227 4.280753,-61.414024 4.051647,-61.35154 3.4684706,-61.066887 2.7533817,-60.601715 2.5659323,-60.43509 2.1771479,-59.907436 1.8855572,-59.58807 1.1774158,-57.65797 0.8788824,-57.095604 0.70531845,-56.4291 0.52481174,-56.054188 0.17074108,-54.950287 -0.16944885,-54.137974 -0.26664257,-53.99912 -0.34995556,-53.64504 -0.34995556,-53.3951 -0.28747082,-53.12433"
       stroke="#000000"
       stroke-width="1"
       fill="none"
       id="polyline48"
       style="stroke-width:0.377953;stroke-dasharray:none" />
    <polyline
       points="-0.33607006,-51.458054 -0.4263258,-51.39557 -0.3846693,-51.2706"
       stroke="#000000"
       stroke-width="1"
       fill="none"
       id="polyline50"
       style="stroke-width:0.377953;stroke-dasharray:none" />
    <polyline
       points="-0.15556335,-50.61798 -0.19721508,-50.576324 -0.09307861,-50.472183"
       stroke="#000000"
       stroke-width="1"
       fill="none"
       id="polyline52"
       style="stroke-width:0.377953;stroke-dasharray:none" />
    <polyline
       points="0.80251694,-49.736244 0.7816839,-49.50019 0.95525265,-49.31968 1.0107946,-49.236366"
       stroke="#000000"
       stroke-width="1"
       fill="none"
       id="polyline54"
       style="stroke-width:0.377953;stroke-dasharray:none" />
    <polyline
       points="1.8161297,-48.34074 1.7675352,-48.34074 1.857791,-48.34074"
       stroke="#000000"
       stroke-width="1"
       fill="none"
       id="polyline56"
       style="stroke-width:0.377953;stroke-dasharray:none" />
    <polyline
       points="2.6700687,-48.076916 2.6284122,-48.104687 2.8366947,-48.11163"
       stroke="#000000"
       stroke-width="1"
       fill="none"
       id="polyline58"
       style="stroke-width:0.377953;stroke-dasharray:none" />
    <polyline
       points="4.1627264,-47.549267 4.1557884,-47.521496 4.4473696,-47.49372"
       stroke="#000000"
       stroke-width="1"
       fill="none"
       id="polyline60"
       style="stroke-width:0.377953;stroke-dasharray:none" />
    <polyline
       points="5.891428,-46.52173 5.8706045,-46.507843 5.856719,-46.389816 6.3288164,-46.22319"
       stroke="#000000"
       stroke-width="1"
       fill="none"
       id="polyline62"
       style="stroke-width:0.377953;stroke-dasharray:none" />
    <polyline
       points="3.5309505,-59.358955 3.2254744,-59.26176 3.1838226,-59.06736 3.1629944,-58.782707 3.2532501,-58.56053 3.4129286,-58.463333 3.6420345,-58.53276 3.891964,-58.754936 4.2460394,-59.122902 4.3293476,-59.19233 4.391837,-59.206215 4.377947,-59.282585 4.169674,-59.43533 3.857255,-59.504757 3.454585,-59.49087 3.1282806,-59.379787 2.920003,-59.233986 2.8714037,-59.06736"
       stroke="#000000"
       stroke-width="1"
       fill="none"
       id="polyline64"
       style="stroke-width:0.377953;stroke-dasharray:none" />
    <polyline
       points="2.3784828,-57.519115 2.343769,-57.498287 2.315998,-57.19975 2.3021173,-56.80401 2.2743416,-56.561012 2.288227,-56.401325 2.3923683,-56.318012 2.5381613,-56.331898 2.781148,-56.540184 2.8505754,-56.741524 2.8644657,-56.970634 2.7672672,-57.220573 2.5520468,-57.40803 2.3090553,-57.470516 2.1354914,-57.449688 2.1077204,-57.248344 2.1077204,-57.019234"
       stroke="#000000"
       stroke-width="1"
       fill="none"
       id="polyline66"
       style="stroke-width:0.377953;stroke-dasharray:none" />
    <polyline
       points="1.6286802,-54.4504 1.2676668,-54.38097 1.1218739,-54.214344 1.0524464,-53.964405 1.0385609,-53.770008 1.1218739,-53.65198 1.3301516,-53.533955 1.6981077,-53.429813 2.0521784,-53.40204 2.260456,-53.561726 2.4201393,-53.818607 2.5312185,-54.05466 2.857523,-54.582314 2.9061174,-54.873917 2.8089237,-55.08914 2.4687386,-55.248825 1.9619274,-55.325195 1.5106583,-55.33908 1.2954378,-55.227997 1.2537813,-55.01277 1.2676668,-54.818375 1.4690065,-54.748947 1.7883635,-54.769768"
       stroke="#000000"
       stroke-width="1"
       fill="none"
       id="polyline68"
       style="stroke-width:0.377953;stroke-dasharray:none" />
    <polyline
       points="4.377947,-56.63044 4.377947,-56.68598 4.371004,-56.567955 4.287696,-56.2347 4.1627264,-55.901443 4.1280127,-55.700104 4.1835546,-55.505707 4.371004,-55.46405 4.655652,-55.54042 5.00278,-55.852844 5.6345606,-56.567955 6.314931,-57.192806 6.4676714,-57.470516 6.453781,-57.699627 6.078882,-57.831543 5.460992,-57.90097 4.9055815,-57.9218 4.572339,-57.90097 4.3848896,-57.68574 4.350176,-57.560772 4.5029163,-57.491344 4.627881,-57.55383"
       stroke="#000000"
       stroke-width="1"
       fill="none"
       id="polyline70"
       style="stroke-width:0.377953;stroke-dasharray:none" />
    <polyline
       points="7.0647287,-59.99075 6.967535,-59.976864 6.8981075,-59.84495 6.68983,-59.546413 6.6759443,-59.4631 6.773143,-59.143734 7.0439053,-58.872963 7.460456,-58.678566 7.883954,-58.650787 8.251915,-58.86602 8.474073,-59.227047 8.661523,-59.629726 8.946176,-60.178204 8.960056,-60.254574 8.876748,-60.36566 8.487964,-60.48369 7.863126,-60.532288 7.2105265,-60.504517 6.627345,-60.33789 6.148305,-60.178204 5.8358955,-59.96298 5.8358955,-59.754696 6.0580587,-59.6089"
       stroke="#000000"
       stroke-width="1"
       fill="none"
       id="polyline72"
       style="stroke-width:0.377953;stroke-dasharray:none" />
    <polyline
       points="7.564597,-57.81071 7.453518,-57.81071 7.3216057,-57.60243 7.342434,-57.345547 7.6062536,-57.116436 7.9256105,-56.998405 8.244972,-56.991463 8.5921,-57.171974 8.626809,-57.227516 8.605986,-57.359432 8.321338,-57.595486 7.745104,-57.907913 7.203579,-58.060654 6.8703365,-57.914856 6.7939663,-57.741287"
       stroke="#000000"
       stroke-width="1"
       fill="none"
       id="polyline74"
       style="stroke-width:0.377953;stroke-dasharray:none" />
    <polyline
       points="2.1493769,-53.665867 1.9688702,-53.561726 1.6703367,-52.811897 1.600914,-52.46476 1.6286802,-52.26342 1.774478,-52.193993 1.9202709,-52.08291 1.9480419,-52.08291 2.1424341,-52.36756 2.2118616,-52.409218 2.3229408,-52.43699 2.3784828,-52.471703 2.4270773,-52.548073 2.454853,-52.756355 2.37154,-52.950752 2.204914,-53.0549 1.8647289,-53.06878 1.399579,-52.94381 1.0593939,-52.7147 0.8927679,-52.395332 0.8580589,-52.103737 1.0246801,-51.93711 1.3926363,-51.826027 1.517601,-51.805195"
       stroke="#000000"
       stroke-width="1"
       fill="none"
       id="polyline76"
       style="stroke-width:0.377953;stroke-dasharray:none" />
    <polyline
       points="4.280753,-53.367325 4.2252064,-53.367325 4.0724707,-53.20764 4.0099907,-52.950752 4.037757,-52.749413 4.287696,-52.659157 4.7042465,-52.74247 5.197172,-53.159042 5.454049,-53.72835 5.4679346,-54.22823 5.086093,-54.51983 4.5792866,-54.568428 4.079418,-54.346256 3.8086557,-53.936634 3.8086557,-53.631153"
       stroke="#000000"
       stroke-width="1"
       fill="none"
       id="polyline78"
       style="stroke-width:0.377953;stroke-dasharray:none" />
    <polyline
       points="2.829752,-49.479362 2.77421,-49.45159 3.65592,-49.458534 3.8850212,-49.534904 4.05859,-49.70153 4.2113256,-49.958412 4.2668676,-50.291668 4.1210747,-50.66658 3.7322855,-50.88875 3.2324219,-50.923462 2.8436375,-50.680466 2.746439,-50.305553 2.9547167,-49.944527"
       stroke="#000000"
       stroke-width="1"
       fill="none"
       id="polyline80"
       style="stroke-width:0.377953;stroke-dasharray:none" />
    <polyline
       points="7.460456,-55.443222 7.4326897,-55.443222 7.2730064,-55.36685 7.189698,-55.200226 7.141099,-54.985 7.1758127,-54.80448 7.279954,-54.637856 7.4396276,-54.533714 7.6479053,-54.464283 7.8700686,-54.57537 8.043637,-54.985 8.092232,-55.51265 7.8978395,-55.88062 7.488227,-55.970875 7.0647287,-55.75565 6.7592525,-55.31131 6.710658,-54.887794 7.023077,-54.79754 7.141099,-54.825317"
       stroke="#000000"
       stroke-width="1"
       fill="none"
       id="polyline82"
       style="stroke-width:0.377953;stroke-dasharray:none" />
    <polyline
       points="10.68182,-58.56053 10.55685,-58.546646 10.299978,-58.310593 10.091696,-57.935684 10.043101,-57.60937 10.154185,-57.40109 10.487428,-57.317776 10.848441,-57.345547 11.230283,-57.651028 11.459389,-57.97734 11.48716,-58.296707 11.403847,-58.55359 11.22334,-58.71328 10.95952,-58.741043 10.785956,-58.546646 10.813727,-58.338364 10.876212,-58.32448"
       stroke="#000000"
       stroke-width="1"
       fill="none"
       id="polyline84"
       style="stroke-width:0.377953;stroke-dasharray:none" />
    <polyline
       points="11.077547,-60.94886 11.056724,-60.97663 10.841498,-60.726685 10.660992,-60.393433 10.640163,-60.178204 10.68182,-60.04629 10.806785,-60.053234 10.94564,-60.29623 10.952582,-60.448975 10.765133,-60.518402 10.411062,-60.532288 10.12641,-60.428146 10.119472,-60.344833"
       stroke="#000000"
       stroke-width="1"
       fill="none"
       id="polyline86"
       style="stroke-width:0.377953;stroke-dasharray:none" />
    <polyline
       points="7.1758127,-46.743896 7.134156,-46.743896 7.1272135,-46.757782 7.16887,-46.771667 7.1827507,-46.79944 7.3216057,-46.910522 7.543769,-47.042435 7.599311,-47.13964 7.800646,-47.334038 8.03669,-47.48678 8.11306,-47.57009 8.231087,-47.63258 8.293567,-47.70895 8.522677,-47.88946 8.869801,-48.132458 9.196105,-48.299084 9.813995,-48.507366 10.029216,-48.54208 10.293031,-48.53514 10.369401,-48.51431"
       stroke="#000000"
       stroke-width="1"
       fill="none"
       id="polyline88"
       style="stroke-width:0.377953;stroke-dasharray:none" />
    <polyline
       points="9.980617,-61.32377 10.258322,-61.490395 10.598507,-61.559822 11.251111,-61.37931 12.000909,-60.84471 12.313328,-60.379547 13.535223,-59.109016 14.097576,-58.7341 15.111189,-57.782944 15.395837,-57.227516 15.979013,-56.491585 17.089828,-54.165745 17.346703,-53.235413 18.068733,-51.29837 18.520002,-50.305553 19.026814,-49.486305 19.450312,-47.972775 19.658585,-46.77861 19.99877,-46.04268 20.463928,-44.56386 21.040163,-42.22414 21.991295,-39.856647 22.310654,-38.683315 22.373142,-37.780754 22.539764,-36.95456 22.657785,-36.87819 22.838291,-37.017044"
       stroke="#000000"
       stroke-width="1"
       fill="none"
       id="polyline90"
       style="stroke-width:0.377953;stroke-dasharray:none" />
    <polyline
       points="10.737357,-48.597622 10.716534,-48.73648 10.82067,-48.743423 11.750979,-48.618454 12.007856,-48.549023 12.58409,-48.2366 13.090897,-47.86169 13.535223,-47.424294 14.062862,-46.88275 14.396105,-46.4037 14.895973,-45.112343 15.347238,-44.494434 15.895705,-43.168358 16.555248,-40.49538 17.193966,-37.266983 17.457787,-36.774044 18.318668,-35.607655 18.658852,-34.837006 19.755783,-32.795826 19.950176,-32.344547 20.436157,-30.608845 20.949907,-29.442453 21.366463,-28.762058 21.449776,-28.477406"
       stroke="#000000"
       stroke-width="1"
       fill="none"
       id="polyline92"
       style="stroke-width:0.377953;stroke-dasharray:none" />
    <polyline
       points="22.449509,-36.90596 22.28983,-36.90596 22.269001,-36.836533 22.255116,-34.982803 22.414795,-34.295467 22.442566,-33.989986 22.56753,-33.40679 22.72027,-32.302887 22.775806,-31.46975 22.845234,-31.198982 22.977142,-30.886555 23.04657,-30.740757 23.240967,-30.463047 23.28262,-30.351963 23.365927,-29.754883 23.365927,-29.310541 23.317333,-29.1578 23.317333,-29.018946 23.220135,-28.560719 22.873005,-28.012238 22.782755,-27.942814 22.56753,-27.942814 22.39397,-27.991413 22.150978,-28.15804 21.422005,-28.727345 21.095705,-28.900919 20.970736,-29.05366"
       stroke="#000000"
       stroke-width="1"
       fill="none"
       id="polyline94"
       style="stroke-width:0.377953;stroke-dasharray:none" />
    <polyline
       points="10.01533,-55.470993 10.029216,-55.776474 10.084758,-55.498764 10.244436,-55.23494 10.438828,-55.075256 10.660992,-55.06137 10.848441,-55.346024 10.973406,-55.75565 10.82067,-56.095844 10.411062,-56.21387 10.01533,-56.102787 9.827881,-55.727875 9.827881,-55.477936"
       stroke="#000000"
       stroke-width="1"
       fill="none"
       id="polyline96"
       style="stroke-width:0.377953;stroke-dasharray:none" />
    <polyline
       points="7.9256105,-53.159042 7.828412,-52.99241 7.765932,-52.74247 7.856188,-52.6661 8.161659,-52.6175 8.487964,-52.6661 8.710127,-52.950752 8.758721,-53.297897 8.529615,-53.52701 8.2102585,-53.54784 7.995038,-53.290955 7.9256105,-52.99936"
       stroke="#000000"
       stroke-width="1"
       fill="none"
       id="polyline98"
       style="stroke-width:0.377953;stroke-dasharray:none" />
    <polyline
       points="5.9539175,-51.49277 5.74564,-51.208115 5.710926,-50.923462 5.995569,-50.805435 6.460724,-50.97206 6.9328213,-51.32614 7.189698,-51.69411 7.252178,-51.812138 7.0994425,-51.71494 6.8981075,-51.34697 6.773143,-50.909576"
       stroke="#000000"
       stroke-width="1"
       fill="none"
       id="polyline100"
       style="stroke-width:0.377953;stroke-dasharray:none" />
    <polyline
       points="16.798244,-52.51336 16.53442,-52.624443 16.444168,-52.555016 16.430283,-52.38839 16.527481,-52.29119 16.652447,-52.332848 16.707989,-52.58973 16.617733,-52.853554 16.381683,-53.04796 16.138697,-53.096558 15.999842,-52.978523 15.958185,-52.652214 16.027613,-52.457817"
       stroke="#000000"
       stroke-width="1"
       fill="none"
       id="polyline102"
       style="stroke-width:0.377953;stroke-dasharray:none" />
    <polyline
       points="14.111457,-50.534664 14.0698,-50.361095 14.285026,-50.277782 14.652982,-50.340267 14.937625,-50.56244 14.979281,-50.756836 14.7432375,-50.88875 14.375277,-50.784607 14.076748,-50.486065 14.042034,-50.24307 14.097576,-50.22224"
       stroke="#000000"
       stroke-width="1"
       fill="none"
       id="polyline104"
       style="stroke-width:0.377953;stroke-dasharray:none" />
    <polyline
       points="12.4382925,-51.72188 12.257786,-51.624683 12.000909,-51.340027 11.931486,-51.062317 12.02868,-50.930405 12.271671,-50.909576 12.410526,-50.985947 12.403579,-51.055374 12.223072,-51.062317 12.056456,-50.881805 12.007856,-50.61798 12.23002,-50.548553"
       stroke="#000000"
       stroke-width="1"
       fill="none"
       id="polyline106"
       style="stroke-width:0.377953;stroke-dasharray:none" />
    <polyline
       points="15.354185,-54.436516 15.208387,-54.36709 15.07648,-54.186573 15.034819,-54.05466 15.111189,-54.00606 15.15285,-54.17963 15.111189,-54.42957 14.875145,-54.540657 14.611325,-54.42957 14.528012,-54.096317"
       stroke="#000000"
       stroke-width="1"
       fill="none"
       id="polyline108"
       style="stroke-width:0.377953;stroke-dasharray:none" />
    <polyline
       points="15.132022,-47.403465 14.972339,-47.36875 14.791832,-47.097984 14.715462,-46.90358 14.868197,-46.87581 15.166736,-46.93135 15.368066,-47.10492 15.409722,-47.334038 15.194502,-47.535378 14.923739,-47.590923 14.722409,-47.375694 14.708524,-47.049377 14.826546,-46.917465"
       stroke="#000000"
       stroke-width="1"
       fill="none"
       id="polyline110"
       style="stroke-width:0.377953;stroke-dasharray:none" />
    <polyline
       points="16.895437,-48.750366 16.819073,-48.750366 16.735754,-48.63928 16.707989,-48.472652 16.937094,-48.382397 17.221737,-48.382397 17.4925,-48.59068 17.610527,-48.854507 17.610527,-48.958656 17.55498,-48.986427 17.513329,-48.875343"
       stroke="#000000"
       stroke-width="1"
       fill="none"
       id="polyline112"
       style="stroke-width:0.377953;stroke-dasharray:none" />
    <polyline
       points="14.423871,-48.000546 14.40999,-48.049145 15.048709,-48.146343 15.555515,-48.31297 15.833225,-48.54208 15.867929,-48.73648 15.638828,-48.778137 15.354185,-48.667053 15.305586,-48.507366 15.381951,-48.493484"
       stroke="#000000"
       stroke-width="1"
       fill="none"
       id="polyline114"
       style="stroke-width:0.377953;stroke-dasharray:none" />
    <polyline
       points="16.47194,-50.423584 16.402512,-50.402752 16.103983,-50.118095 16.006784,-49.861214 16.17341,-49.604332 16.416397,-49.465477"
       stroke="#000000"
       stroke-width="1"
       fill="none"
       id="polyline116"
       style="stroke-width:0.377953;stroke-dasharray:none" />
    <polyline
       points="18.096504,-45.88299 17.992363,-45.88299 18.193703,-45.889935 18.45058,-46.014904 18.63803,-46.264847 18.693565,-46.5981 18.596373,-46.848038 18.34644,-46.87581 18.054852,-46.570328 17.971539,-46.12599 18.027077,-45.896877"
       stroke="#000000"
       stroke-width="1"
       fill="none"
       id="polyline118"
       style="stroke-width:0.377953;stroke-dasharray:none" />
    <polyline
       points="16.49971,-45.369225 16.45111,-45.33451 16.437225,-45.188713 16.541367,-45.154 16.645504,-45.2026 16.562195,-45.348396 16.228947,-45.41088 15.937357,-45.25814 15.874877,-44.883232 15.944304,-44.77909"
       stroke="#000000"
       stroke-width="1"
       fill="none"
       id="polyline120"
       style="stroke-width:0.377953;stroke-dasharray:none" />
    <polyline
       points="17.152313,-42.17554 17.103714,-41.911716 17.249508,-41.689545 17.35365,-41.585403 17.499443,-41.61318 17.527214,-41.731205 17.485558,-41.89783 17.263393,-41.96726 16.909323,-42.036686 16.874609,-41.99503 16.895437,-41.91866"
       stroke="#000000"
       stroke-width="1"
       fill="none"
       id="polyline122"
       style="stroke-width:0.377953;stroke-dasharray:none" />
    <polyline
       points="19.165665,-43.501617 19.158722,-43.40442 19.172607,-43.341934 19.235086,-43.32805 19.332285,-43.362762 19.408655,-43.501617 19.408655,-43.73073 19.297577,-43.904297 19.130955,-43.945953 18.957386,-43.855698 18.874077,-43.577988 18.887959,-43.265564"
       stroke="#000000"
       stroke-width="1"
       fill="none"
       id="polyline124"
       style="stroke-width:0.377953;stroke-dasharray:none" />
    <polyline
       points="17.728548,-40.106586 17.763262,-39.995502 18.020138,-39.828876 17.999306,-39.75945 17.73549,-39.551167 17.909054,-39.509506 17.992363,-39.509506"
       stroke="#000000"
       stroke-width="1"
       fill="none"
       id="polyline126"
       style="stroke-width:0.377953;stroke-dasharray:none" />
    <polyline
       points="20.373672,-40.773094 20.304245,-40.88418 20.463928,-41.009148 20.547237,-41.182724 20.575012,-41.363235 20.470871,-41.481262 20.248709,-41.404884 19.99877,-41.182724 19.922405,-40.870293 19.943237,-40.68284"
       stroke="#000000"
       stroke-width="1"
       fill="none"
       id="polyline128"
       style="stroke-width:0.377953;stroke-dasharray:none" />
    <polyline
       points="21.338696,-38.204266 21.151247,-38.114006 21.144299,-38.002922 21.380348,-37.989037 21.762196,-38.204266 22.026009,-38.502804 21.998238,-38.780514 21.685825,-38.933254 21.331749,-38.863827 21.109585,-38.6 21.102648,-38.509747"
       stroke="#000000"
       stroke-width="1"
       fill="none"
       id="polyline130"
       style="stroke-width:0.377953;stroke-dasharray:none" />
    <polyline
       points="18.492231,-38.48892 18.429752,-38.48892 18.207588,-38.39866 18.131218,-38.114006 18.34644,-37.954323 18.672737,-37.905724 18.874077,-37.919605 18.853249,-37.94738 18.603315,-37.912666 18.290897,-37.57941 18.242302,-37.07953 18.34644,-36.899017"
       stroke="#000000"
       stroke-width="1"
       fill="none"
       id="polyline132"
       style="stroke-width:0.377953;stroke-dasharray:none" />
    <polyline
       points="20.207052,-39.481735 20.248709,-39.502567 20.12374,-39.162365 20.095974,-38.954086 20.116802,-38.752743"
       stroke="#000000"
       stroke-width="1"
       fill="none"
       id="polyline134"
       style="stroke-width:0.377953;stroke-dasharray:none" />
    <polyline
       points="21.803846,-35.39243 21.533085,-35.68403 21.352581,-35.7118 21.151247,-35.53823 21.109585,-35.44103 21.179012,-35.41326 21.449776,-35.600716 21.664991,-35.91314"
       stroke="#000000"
       stroke-width="1"
       fill="none"
       id="polyline136"
       style="stroke-width:0.377953;stroke-dasharray:none" />
    <polyline
       points="21.449776,-36.37831 21.31092,-36.315823"
       stroke="#000000"
       stroke-width="1"
       fill="none"
       id="polyline138"
       style="stroke-width:0.377953;stroke-dasharray:none" />
    <polyline
       points="19.047638,-35.822884 18.818535,-35.704857 18.603315,-35.4202 18.63803,-35.26746 18.881016,-35.23969 19.290628,-35.302174 19.616932,-35.323"
       stroke="#000000"
       stroke-width="1"
       fill="none"
       id="polyline140"
       style="stroke-width:0.377953;stroke-dasharray:none" />
    <polyline
       points="0.7955694,-50.083385 0.70531845,-50.277782 0.91359615,-50.347214"
       stroke="#a52a2a"
       stroke-width="1"
       fill="none"
       id="polyline142"
       style="stroke-width:0.377953;stroke-dasharray:none" />
    <polyline
       points="0.94136715,-49.930645 0.91359615,-49.930645 0.80251694,-49.85427 0.87193966,-49.694588"
       stroke="#a52a2a"
       stroke-width="1"
       fill="none"
       id="polyline144"
       style="stroke-width:0.377953;stroke-dasharray:none" />
    <polyline
       points="0.78863144,-48.2366 0.69143295,-48.056087 0.96913815,-47.96583"
       stroke="#a52a2a"
       stroke-width="1"
       fill="none"
       id="polyline146"
       style="stroke-width:0.377953;stroke-dasharray:none" />
    <polyline
       points="2.4756765,-47.250725 2.0521784,-47.222954 2.204914,-47.10492"
       stroke="#a52a2a"
       stroke-width="1"
       fill="none"
       id="polyline148"
       style="stroke-width:0.377953;stroke-dasharray:none" />
    <polyline
       points="3.7184,-46.97995 3.399043,-46.993835 3.2532501,-46.97995 3.5864925,-46.848038"
       stroke="#a52a2a"
       stroke-width="1"
       fill="none"
       id="polyline150"
       style="stroke-width:0.377953;stroke-dasharray:none" />
    <polyline
       points="4.141898,-46.035736 3.968339,-46.014904 3.857255,-45.92465 4.079418,-45.813564"
       stroke="#a52a2a"
       stroke-width="1"
       fill="none"
       id="polyline152"
       style="stroke-width:0.377953;stroke-dasharray:none" />
    <polyline
       points="3.3782148,-45.869106 3.204646,-45.834393 3.0866241,-45.75802 3.2185364,-45.80662"
       stroke="#a52a2a"
       stroke-width="1"
       fill="none"
       id="polyline154"
       style="stroke-width:0.377953;stroke-dasharray:none" />
    <polyline
       points="2.3368263,-46.334274 2.170205,-46.334274 2.1077204,-46.306503 2.281289,-46.32733"
       stroke="#a52a2a"
       stroke-width="1"
       fill="none"
       id="polyline156"
       style="stroke-width:0.377953;stroke-dasharray:none" />
    <polyline
       points="1.3926363,-47.514553 1.0385609,-47.47984 1.3162661,-47.695065"
       stroke="#a52a2a"
       stroke-width="1"
       fill="none"
       id="polyline158"
       style="stroke-width:0.377953;stroke-dasharray:none" />
    <polyline
       points="0.4484415,-48.66011 0.018000603,-48.500423 0.20545006,-48.493484"
       stroke="#a52a2a"
       stroke-width="1"
       fill="none"
       id="polyline160"
       style="stroke-width:0.377953;stroke-dasharray:none" />
    <polyline
       points="-0.97478867,-48.396282 -1.3566303,-48.36157 -1.3358045,-48.326855 -1.0997558,-48.347683"
       stroke="#a52a2a"
       stroke-width="1"
       fill="none"
       id="polyline162"
       style="stroke-width:0.377953;stroke-dasharray:none" />
    <polyline
       points="-0.48880577,-47.917233 -0.75262547,-47.73672 -0.64154387,-47.528435 -0.18333435,-47.410408"
       stroke="#a52a2a"
       stroke-width="1"
       fill="none"
       id="polyline164"
       style="stroke-width:0.377953;stroke-dasharray:none" />
    <polyline
       points="0.2401638,-46.90358 0.12907982,-46.820267 0.27487755,-46.632812 0.55258274,-46.514786"
       stroke="#a52a2a"
       stroke-width="1"
       fill="none"
       id="polyline166"
       style="stroke-width:0.377953;stroke-dasharray:none" />
    <polyline
       points="2.1632624,-45.25814 1.9063854,-45.35534 2.2326899,-45.390053"
       stroke="#a52a2a"
       stroke-width="1"
       fill="none"
       id="polyline168"
       style="stroke-width:0.377953;stroke-dasharray:none" />
    <polyline
       points="3.121338,-44.57081 2.7325535,-44.418068 2.9408312,-44.32781 3.0727386,-44.30698"
       stroke="#a52a2a"
       stroke-width="1"
       fill="none"
       id="polyline170"
       style="stroke-width:0.377953;stroke-dasharray:none" />
    <polyline
       points="2.2674036,-45.0568 2.170205,-45.063744 2.0868921,-45.140114"
       stroke="#a52a2a"
       stroke-width="1"
       fill="none"
       id="polyline172"
       style="stroke-width:0.377953;stroke-dasharray:none" />
    <polyline
       points="-1.0997558,-46.341217 -1.210835,-46.341217 -1.2802625,-46.27179"
       stroke="#a52a2a"
       stroke-width="1"
       fill="none"
       id="polyline174"
       style="stroke-width:0.377953;stroke-dasharray:none" />
    <polyline
       points="-1.9467521,-46.160706 -2.2522259,-45.889935 -2.0717168,-45.848278"
       stroke="#a52a2a"
       stroke-width="1"
       fill="none"
       id="polyline176"
       style="stroke-width:0.377953;stroke-dasharray:none" />
    <polyline
       points="-1.8148422,-45.265083 -1.9884062,-45.23037 -1.7870712,-45.12623 -1.6690493,-45.112343"
       stroke="#a52a2a"
       stroke-width="1"
       fill="none"
       id="polyline178"
       style="stroke-width:0.377953;stroke-dasharray:none" />
    <polyline
       points="-1.0580993,-44.445835 -1.2247229,-44.230606 -1.0442138,-44.04315 -0.75262547,-44.01538"
       stroke="#a52a2a"
       stroke-width="1"
       fill="none"
       id="polyline180"
       style="stroke-width:0.377953;stroke-dasharray:none" />
    <polyline
       points="0.9066534,-42.737904 0.73308945,-42.737904 0.4206705,-42.647648 0.8788824,-42.59905"
       stroke="#a52a2a"
       stroke-width="1"
       fill="none"
       id="polyline182"
       style="stroke-width:0.377953;stroke-dasharray:none" />
    <polyline
       points="2.1216059,-42.515736 1.8300152,-42.39771 1.9758129,-42.203312"
       stroke="#a52a2a"
       stroke-width="1"
       fill="none"
       id="polyline184"
       style="stroke-width:0.377953;stroke-dasharray:none" />
    <polyline
       points="-2.765975,-42.314396 -2.8978848,-42.30051 -3.022852,-42.25191 -2.8423429,-42.22414"
       stroke="#000000"
       stroke-width="1"
       fill="none"
       id="polyline186"
       style="stroke-width:0.377953;stroke-dasharray:none" />
    <polyline
       points="-1.9189811,-41.620117 -1.9050956,-41.647892 -1.821785,-41.668716"
       stroke="#000000"
       stroke-width="1"
       fill="none"
       id="polyline188"
       style="stroke-width:0.377953;stroke-dasharray:none" />
    <polyline
       points="-0.4679799,-41.029984 -0.54434776,-41.029984 -0.6762552,-40.856407 -0.40549517,-40.68284"
       stroke="#000000"
       stroke-width="1"
       fill="none"
       id="polyline190"
       style="stroke-width:0.377953;stroke-dasharray:none" />
    <polyline
       points="-0.4679799,-41.515976 -0.65542936,-41.557625 -0.84982157,-41.634007 -0.72485685,-41.69649"
       stroke="#000000"
       stroke-width="1"
       fill="none"
       id="polyline192"
       style="stroke-width:0.377953;stroke-dasharray:none" />
    <polyline
       points="-1.8703842,-42.814278 -2.3702502,-42.710136 -2.474389,-42.369938 -2.321651,-41.752033 -1.8773246,-41.161896 -1.7454171,-41.071632"
       stroke="#000000"
       stroke-width="1"
       fill="none"
       id="polyline194"
       style="stroke-width:0.377953;stroke-dasharray:none" />
    <polyline
       points="-1.3982844,-42.342167 -1.6551614,-42.369938"
       stroke="#000000"
       stroke-width="1"
       fill="none"
       id="polyline196"
       style="stroke-width:0.377953;stroke-dasharray:none" />
    <polyline
       points="-2.4119043,-42.217197 -2.4813318,-42.203312 -2.5993538,-42.133884 -2.6826644,-42.106113 -2.5091004,-42.001972 -2.0717168,-41.988087 -1.9536924,-42.008915"
       stroke="#000000"
       stroke-width="1"
       fill="none"
       id="polyline198"
       style="stroke-width:0.377953;stroke-dasharray:none" />
    <polyline
       points="-1.6759896,-42.19637 -1.7731857,-42.085285 -1.8564963,-41.779804 -1.6968179,-41.37018 -1.6065645,-41.286858"
       stroke="#000000"
       stroke-width="1"
       fill="none"
       id="polyline200"
       style="stroke-width:0.377953;stroke-dasharray:none" />
    <polyline
       points="-0.8567643,-41.60623 -1.2177801,-41.59234 -1.1275244,-41.29381 -0.8845353,-40.99527"
       stroke="#000000"
       stroke-width="1"
       fill="none"
       id="polyline202"
       style="stroke-width:0.377953;stroke-dasharray:none" />
    <polyline
       points="-0.55823326,-40.91889 -0.9400749,-40.88418 -0.7942796,-40.58564 -0.54434776,-40.328754"
       stroke="#000000"
       stroke-width="1"
       fill="none"
       id="polyline204"
       style="stroke-width:0.377953;stroke-dasharray:none" />
    <polyline
       points="-1.1691809,-39.377594 -1.3149762,-39.29428 -1.3288617,-39.016567 -1.0858703,-38.711086 -0.7595706,-38.586117 -0.48880577,-38.606945 -0.34995556,-38.72497 -0.30135632,-38.84994 -0.33607006,-39.009624 -0.48880577,-39.16931 -0.7179117,-39.210968 -0.9817314,-39.065166 -1.1205816,-38.704144 -1.148355,-38.37089 -0.84982157,-38.25286"
       stroke="#000000"
       stroke-width="1"
       fill="none"
       id="polyline206"
       style="stroke-width:0.377953;stroke-dasharray:none" />
    <polyline
       points="-1.4468861,-39.63448 -1.6898751,-39.73862 -1.7454171,-39.63448 -1.7593026,-39.460907 -1.7245889,-39.315105 -1.5718508,-39.25263 -1.3982844,-39.322052"
       stroke="#000000"
       stroke-width="1"
       fill="none"
       id="polyline208"
       style="stroke-width:0.377953;stroke-dasharray:none" />
    <polyline
       points="-2.29388,-40.412067 -2.4119043,-40.412067 -2.8423429,-40.169075 -2.9048276,-39.794163 -2.6896071,-39.453968 -2.578528,-39.43314"
       stroke="#000000"
       stroke-width="1"
       fill="none"
       id="polyline210"
       style="stroke-width:0.377953;stroke-dasharray:none" />
    <polyline
       points="-2.495215,-40.474556 -2.8909445,-40.3357 -3.1061625,-40.07881 -3.1131077,-39.849705 -2.8631735,-39.71085"
       stroke="#000000"
       stroke-width="1"
       fill="none"
       id="polyline212"
       style="stroke-width:0.377953;stroke-dasharray:none" />
    <polyline
       points="-4.4738555,-41.210487 -4.7793293,-41.113297 -5.2722526,-40.828636 -5.3208494,-40.502327 -5.0223184,-40.030212 -4.772384,-39.794163"
       stroke="#000000"
       stroke-width="1"
       fill="none"
       id="polyline214"
       style="stroke-width:0.377953;stroke-dasharray:none" />
    <polyline
       points="-4.571049,-40.266273 -4.855697,-40.252388 -4.8695827,-40.099648"
       stroke="#000000"
       stroke-width="1"
       fill="none"
       id="polyline216"
       style="stroke-width:0.377953;stroke-dasharray:none" />
    <polyline
       points="-4.1614366,-38.433372 -4.4252563,-38.25286 -4.4460845,-37.96821 -4.126723,-37.6419 -3.7379384,-37.516926 -3.4602356,-37.614124 -3.4046936,-37.94738 -3.5643744,-38.34312 -3.8420773,-38.5514 -4.0850687,-38.558346 -4.2655754,-38.35006 -4.321115,-38.079292 -4.2378044,-37.787693 -4.0642405,-37.57247 -3.9323306,-37.48916"
       stroke="#000000"
       stroke-width="1"
       fill="none"
       id="polyline218"
       style="stroke-width:0.377953;stroke-dasharray:none" />
    <polyline
       points="-6.0151076,-38.843 -6.2442136,-38.877712 -6.2928104,-38.801346 -6.2025595,-38.30146 -5.9803963,-37.919605 -5.827658,-37.808525 -5.799887,-37.836292 -5.8832,-38.065407 -6.098418,-38.232033 -6.2789273,-38.259804 -6.3344693,-37.94738 -6.126189,-37.433613"
       stroke="#000000"
       stroke-width="1"
       fill="none"
       id="polyline220"
       style="stroke-width:0.377953;stroke-dasharray:none" />
    <polyline
       points="-2.0856047,-36.683792 -2.3771906,-36.683792 -2.3702502,-36.642136 -2.1619725,-36.593536 -2.0022917,-36.614365 -1.9745231,-36.87819 -2.196684,-37.190617 -2.5993538,-37.357246 -2.9603696,-37.280872 -3.0853367,-36.836533 -2.8909445,-36.301937 -2.5160432,-35.982567"
       stroke="#000000"
       stroke-width="1"
       fill="none"
       id="polyline222"
       style="stroke-width:0.377953;stroke-dasharray:none" />
    <polyline
       points="-2.3980188,-35.579887 -2.6132393,-35.454914 -2.6271248,-35.149433 -2.3980188,-34.92032 -2.1342015,-34.816177 -2.050891,-34.760635 -2.2799969,-34.691208 -2.2383404,-34.64955 -2.1827984,-34.635666 -2.203629,-34.72592 -2.4049616,-34.857834 -2.6548958,-34.94809 -2.8076339,-34.934204 -2.8423429,-34.753693 -2.8145766,-34.552353 -2.7451491,-34.462093 -2.7104354,-34.44821"
       stroke="#000000"
       stroke-width="1"
       fill="none"
       id="polyline224"
       style="stroke-width:0.377953;stroke-dasharray:none" />
    <polyline
       points="-4.543278,-36.37831 -4.9667788,-36.343597 -5.008433,-36.197796 -4.9181795,-35.83677 -4.605763,-35.517403 -4.307232,-35.447975"
       stroke="#000000"
       stroke-width="1"
       fill="none"
       id="polyline226"
       style="stroke-width:0.377953;stroke-dasharray:none" />
    <polyline
       points="-4.6890736,-36.42691 -5.036204,-36.44079 -5.327792,-36.204735 -5.40416,-36.19085 -5.570781,-36.23945 -5.681863,-36.301937"
       stroke="#000000"
       stroke-width="1"
       fill="none"
       id="polyline228"
       style="stroke-width:0.377953;stroke-dasharray:none" />
    <polyline
       points="-6.181731,-36.32276 -6.2997556,-35.59377 -6.230328,-35.08695 -6.0151076,-34.816177"
       stroke="#000000"
       stroke-width="1"
       fill="none"
       id="polyline230"
       style="stroke-width:0.377953;stroke-dasharray:none" />
    <polyline
       points="-5.8207154,-33.8303 -5.6193805,-33.62896 -5.0500894,-33.594246"
       stroke="#000000"
       stroke-width="1"
       fill="none"
       id="polyline232"
       style="stroke-width:0.377953;stroke-dasharray:none" />
    <polyline
       points="-3.9878726,-33.510933 -4.2169785,-33.490105 -4.3905425,-33.344307 -4.11978,-33.038826 -3.6546278,-32.9208 -3.293612,-33.01105"
       stroke="#000000"
       stroke-width="1"
       fill="none"
       id="polyline234"
       style="stroke-width:0.377953;stroke-dasharray:none" />
    <polyline
       points="-2.8562307,-34.003872 -2.974255,-33.983044 -3.120048,-33.691444 -3.120048,-33.351246 -2.8840017,-33.07354 -2.5854707,-32.9694 -2.2522259,-33.07354 -2.0300627,-33.413734 -2.1272588,-33.684505 -2.446618,-33.892788 -2.918713,-33.983044 -3.3005571,-34.003872 -3.4602356,-33.92056 -3.5088325,-33.615074 -3.4324646,-33.205452"
       stroke="#000000"
       stroke-width="1"
       fill="none"
       id="polyline236"
       style="stroke-width:0.377953;stroke-dasharray:none" />
    <polyline
       points="-3.4185815,-30.594963 -3.5713172,-30.664387 -3.5852027,-30.504704 -3.4116364,-30.31725 -3.1686473,-30.400562 -2.9673123,-30.77547 -2.9603696,-31.233696 -3.2589006,-31.629438 -3.6337996,-31.740522 -3.9601016,-31.504463 -4.0642405,-31.011528 -3.9878726,-30.6991"
       stroke="#000000"
       stroke-width="1"
       fill="none"
       id="polyline238"
       style="stroke-width:0.377953;stroke-dasharray:none" />
    <polyline
       points="-5.091746,-30.844902 -5.6402087,-30.900444 -5.910969,-30.893501 -5.9873366,-30.657444 -5.8415437,-30.46999 -5.5638385,-30.435276 -5.3694487,-30.643562 -5.355563,-31.011528 -5.459702,-31.29618 -5.5360723,-31.351723 -5.4458165,-30.935158 -5.376389,-30.782413"
       stroke="#000000"
       stroke-width="1"
       fill="none"
       id="polyline240"
       style="stroke-width:0.377953;stroke-dasharray:none" />
    <polyline
       points="-5.3208494,-28.498234 -5.452757,-28.498234 -5.3416753,-28.38715 -4.911237,-28.067783 -4.2378044,-27.935871 -3.6685133,-28.040012 -3.5157752,-28.401041 -3.5088325,-28.741236 -3.5921454,-28.92869 -3.6823988,-28.963398 -3.703227,-28.838434 -3.6754537,-28.428806 -3.5990858,-28.220524"
       stroke="#000000"
       stroke-width="1"
       fill="none"
       id="polyline242"
       style="stroke-width:0.377953;stroke-dasharray:none" />
    <polyline
       points="-6.508031,-28.421864 -6.68854,-28.428806 -6.8343353,-28.317722 -6.7510247,-27.991413 -6.508031,-27.803959 -6.362238,-27.79007 -6.3761234,-27.928925 -6.7510247,-28.18581 -7.4313974,-28.324665 -7.917378,-28.227467 -7.8410077,-27.810898 -7.743814,-27.692871"
       stroke="#000000"
       stroke-width="1"
       fill="none"
       id="polyline244"
       style="stroke-width:0.377953;stroke-dasharray:none" />
    <polyline
       points="-3.120048,-25.797491 -3.120048,-25.818314 -3.0575657,-25.790543 -2.8840017,-25.908575 -2.8284597,-26.1724 -3.1478214,-26.443172 -3.619914,-26.498709 -4.029529,-26.227942 -4.154494,-25.811377 -4.071183,-25.436462"
       stroke="#000000"
       stroke-width="1"
       fill="none"
       id="polyline246"
       style="stroke-width:0.377953;stroke-dasharray:none" />
    <polyline
       points="-7.4799967,-25.748892 -7.6813293,-25.651688 -7.6813293,-25.394806 -7.292545,-25.186523 -6.862104,-25.124035 -6.709366,-25.30455 -6.792679,-25.561438 -7.1536922,-25.714178 -7.563305,-25.714178 -7.6743865,-25.35315 -7.521651,-24.922695"
       stroke="#000000"
       stroke-width="1"
       fill="none"
       id="polyline248"
       style="stroke-width:0.377953;stroke-dasharray:none" />
    <polyline
       points="-2.321651,-23.777138 -2.6410103,-23.83268 -2.765975,-23.659105 -2.752092,-23.450829 -2.6062965,-23.360567 -2.446618,-23.499428 -2.418847,-23.797966 -2.5715828,-24.040962 -2.9534245,-24.20065 -3.2380724,-24.13816 -3.3352685,-23.888222 -3.2589006,-23.610506"
       stroke="#000000"
       stroke-width="1"
       fill="none"
       id="polyline250"
       style="stroke-width:0.377953;stroke-dasharray:none" />
    <polyline
       points="-7.1189785,-22.659344 -7.3480844,-22.589916 -7.417512,-22.381634 -7.320316,-22.215004 -7.0703816,-22.187237 -6.9245887,-22.589916"
       stroke="#000000"
       stroke-width="1"
       fill="none"
       id="polyline252"
       style="stroke-width:0.377953;stroke-dasharray:none" />
    <polyline
       points="-7.209234,-23.11757 -7.4244547,-23.186998 -7.8757215,-23.027315 -7.986803,-22.319149 -7.8340673,-21.5485 -7.4799967,-21.111103"
       stroke="#000000"
       stroke-width="1"
       fill="none"
       id="polyline254"
       style="stroke-width:0.377953;stroke-dasharray:none" />
    <polyline
       points="-7.9798627,-19.993315 -8.167313,-19.750313 -8.181195,-19.521202 -8.118713,-19.319862 -8.056231,-19.26432 -8.02846,-19.38929 -8.035402,-19.507317 -8.097885,-19.472603 -8.056231,-19.229607 -7.5285935,-19.06298"
       stroke="#000000"
       stroke-width="1"
       fill="none"
       id="polyline256"
       style="stroke-width:0.377953;stroke-dasharray:none" />
    <polyline
       points="-2.647953,-20.562626 -2.9048276,-20.527912 -2.974255,-20.423765 -2.7868032,-20.354338 -2.4535584,-20.51402 -2.3147106,-20.79868 -2.3841333,-21.173592 -2.8006887,-21.444359 -3.1408763,-21.340218 -3.279729,-21.097218 -3.293612,-20.743137 -3.0922794,-20.583448"
       stroke="#000000"
       stroke-width="1"
       fill="none"
       id="polyline258"
       style="stroke-width:0.377953;stroke-dasharray:none" />
    <polyline
       points="-7.112038,-20.777851 -7.188406,-20.611225 -7.0564985,-20.347395 -6.5288615,-20.291859 -6.056764,-20.590391 -5.8832,-20.819502 -5.890143,-20.909763 -6.0012245,-20.847279 -5.966511,-20.451536 -5.4735875,-20.104399"
       stroke="#000000"
       stroke-width="1"
       fill="none"
       id="polyline260"
       style="stroke-width:0.377953;stroke-dasharray:none" />
    <polyline
       points="-4.577992,-24.193703 -5.036204,-24.18676 -5.334735,-23.895164 -5.3972173,-23.367516 -5.237539,-22.97871 -5.008433,-22.88846 -4.9390078,-23.034258 -4.9737215,-23.346682 -5.077858,-23.58274 -5.0153756,-23.520256"
       stroke="#000000"
       stroke-width="1"
       fill="none"
       id="polyline262"
       style="stroke-width:0.377953;stroke-dasharray:none" />
    <polyline
       points="-7.549422,-16.209492 -7.8757215,-16.202545 -7.9034925,-16.188663 -7.76464,-16.077576 -7.43834,-16.03592 -7.1259212,-16.140064 -7.084267,-16.334457 -7.2717166,-16.563572 -7.5702477,-16.716312 -7.743814,-16.619114 -7.6813293,-16.27892 -7.216177,-15.931778 -6.9037604,-15.848465"
       stroke="#000000"
       stroke-width="1"
       fill="none"
       id="polyline264"
       style="stroke-width:0.377953;stroke-dasharray:none" />
    <polyline
       points="-5.626323,-17.223139 -5.737405,-17.243967 -5.709634,-17.17454 -5.466645,-17.000965 -5.1472855,-16.9246 -4.932065,-17.112055 -4.911237,-17.417542 -5.2444816,-17.695246 -5.633266,-17.743845 -5.7929444,-17.459192 -5.570781,-16.994022"
       stroke="#000000"
       stroke-width="1"
       fill="none"
       id="polyline266"
       style="stroke-width:0.377953;stroke-dasharray:none" />
    <polyline
       points="-1.7107034,-17.382822 -1.7245889,-17.348108 -1.6968179,-17.264795 -1.5371394,-17.195368 -1.4260578,-17.32728 -1.3982844,-17.653595 -1.5163112,-18.000732 -1.794014,-18.181244 -2.064774,-18.139587 -2.2522259,-17.79245 -2.2244549,-17.341166"
       stroke="#000000"
       stroke-width="1"
       fill="none"
       id="polyline268"
       style="stroke-width:0.377953;stroke-dasharray:none" />
    <polyline
       points="-7.1259212,-13.5018015 -7.2022915,-13.39766 -7.355027,-13.015804 -6.931529,-12.876949 -6.41778,-12.946377 -5.9873366,-13.2588005 -5.7721186,-13.668427 -5.7860017,-13.807282 -5.959568,-13.654542 -6.056764,-12.974148 -5.7512903,-12.265983 -5.237539,-12.022986"
       stroke="#000000"
       stroke-width="1"
       fill="none"
       id="polyline270"
       style="stroke-width:0.377953;stroke-dasharray:none" />
    <polyline
       points="-3.3422112,-14.29328 -3.7171125,-14.258561 -3.876791,-14.189134 -3.8906765,-14.119711 -3.6476874,-14.16831 -3.4880066,-14.411306 -3.5921454,-14.702902 -3.9670444,-15.022268 -4.244747,-14.959788 -4.307232,-14.564047 -4.154494,-14.119711 -3.8837337,-13.869767 -3.703227,-13.848939"
       stroke="#000000"
       stroke-width="1"
       fill="none"
       id="polyline272"
       style="stroke-width:0.377953;stroke-dasharray:none" />
    <polyline
       points="-0.80816746,-15.008388 -1.0580993,-14.994502 -1.3010907,-14.876475 -1.2594366,-14.772329 -1.1136413,-14.779277 -1.0789275,-15.036159 -1.4052296,-15.3138685 -1.9606352,-15.383296 -2.2730517,-15.105586 -2.1827984,-14.668188"
       stroke="#000000"
       stroke-width="1"
       fill="none"
       id="polyline274"
       style="stroke-width:0.377953;stroke-dasharray:none" />
    <polyline
       points="-5.8693147,-10.953798 -5.994282,-10.766339 -6.0706496,-10.321999 -5.765176,-10.065117 -5.2028275,-10.169258 -4.7862697,-10.627484 -4.7307277,-11.050992 -4.9598336,-11.259279 -5.300021,-11.252332 -5.5221844,-10.946851 -5.570781,-10.627484 -5.2305937,-10.426145"
       stroke="#000000"
       stroke-width="1"
       fill="none"
       id="polyline276"
       style="stroke-width:0.377953;stroke-dasharray:none" />
    <polyline
       points="-1.7315292,-12.377067 -1.9745231,-12.3493 -1.9120383,-12.238212 -1.5024257,-12.300701"
       stroke="#000000"
       stroke-width="1"
       fill="none"
       id="polyline278"
       style="stroke-width:0.377953;stroke-dasharray:none" />
    <polyline
       points="-1.3427448,-12.620068 -1.6412783,-12.814465 -1.8009567,-12.856121 -1.8426108,-12.647834 -1.7107034,-12.390952"
       stroke="#000000"
       stroke-width="1"
       fill="none"
       id="polyline280"
       style="stroke-width:0.377953;stroke-dasharray:none" />
    <polyline
       points="-4.529395,-9.738803 -4.7029614,-9.544411 -4.800155,-9.162555 -4.4946814,-8.982043 -4.1892076,-9.058409 -4.133668,-9.356952 -4.2378044,-9.516635 -4.335003,-9.481921 -4.355829,-9.002867 -3.9601016,-8.468275 -3.6129737,-8.378015"
       stroke="#000000"
       stroke-width="1"
       fill="none"
       id="polyline282"
       style="stroke-width:0.377953;stroke-dasharray:none" />
    <polyline
       points="-0.648489,-9.384723 -0.710969,-9.363894 -0.8289933,-9.266696 -0.6207156,-9.225035 -0.32218456,-9.433322"
       stroke="#000000"
       stroke-width="1"
       fill="none"
       id="polyline284"
       style="stroke-width:0.377953;stroke-dasharray:none" />
    <polyline
       points="-0.4679799,-10.252571 -0.66931486,-10.377545 -0.98867416,-10.433083 -1.0372734,-10.384483 -1.0164428,-10.321999"
       stroke="#000000"
       stroke-width="1"
       fill="none"
       id="polyline286"
       style="stroke-width:0.377953;stroke-dasharray:none" />
    <polyline
       points="-5.0431466,-6.614547 -5.1958847,-6.1285543 -5.0153756,-5.8855534 -4.6960163,-5.8716726 -4.6404767,-6.1216116 -4.848752,-6.517353 -5.181997,-6.8991995 -5.3486204,-6.9755745 -5.362506,-6.739521 -4.911237,-6.309066 -4.7237873,-6.225753"
       stroke="#000000"
       stroke-width="1"
       fill="none"
       id="polyline288"
       style="stroke-width:0.377953;stroke-dasharray:none" />
    <polyline
       points="-0.8706498,-6.059127 -0.9331322,-6.059127 -1.0442138,-6.0938406 -0.9400749,-6.1007786 -0.68320036,-6.2118673 -0.5512905,-6.4062643 -0.5374074,-6.5104055 -0.5512905,-6.524291 -0.5651736,-6.309066 -0.30829906,-6.0174656 -0.18333435,-6.003585"
       stroke="#000000"
       stroke-width="1"
       fill="none"
       id="polyline290"
       style="stroke-width:0.377953;stroke-dasharray:none" />
    <polyline
       points="0.51092625,-5.4689837 0.7261467,-5.475931"
       stroke="#000000"
       stroke-width="1"
       fill="none"
       id="polyline292"
       style="stroke-width:0.377953;stroke-dasharray:none" />
    <polyline
       points="-4.2864037,-7.0588875 -4.529395,-6.8367195 -4.4321966,-6.4618063 -3.6893415,-6.2882376 -3.0714512,-6.4548635 -2.8909445,-6.8783712 -3.1061625,-7.294941 -3.5435462,-7.4407387 -3.835137,-7.156086 -3.84902,-6.364608 -3.5157752,-5.7189274"
       stroke="#000000"
       stroke-width="1"
       fill="none"
       id="polyline294"
       style="stroke-width:0.377953;stroke-dasharray:none" />
    <polyline
       points="-0.05142212,-3.3653164 -0.1347351,-3.3236647 -0.03754139,-3.2820082 0.406785,-3.205638 0.80251694,-3.3236647 0.8788824,-3.7194014 0.5039835,-4.253998 0.10825634,-4.3095446 -0.5512905,-3.9623976 -0.68320036,-3.934636"
       stroke="#000000"
       stroke-width="1"
       fill="none"
       id="polyline296"
       style="stroke-width:0.377953;stroke-dasharray:none" />
    <polyline
       points="-4.9251223,-4.281769 -5.105629,-3.9623976 -5.008433,-3.802719 -4.952891,-3.6291456 -5.0431466,-3.4972286"
       stroke="#000000"
       stroke-width="1"
       fill="none"
       id="polyline298"
       style="stroke-width:0.377953;stroke-dasharray:none" />
    <polyline
       points="-3.6893415,-3.7610579 -3.876791,-3.7680054 -3.9878726,-3.7471771 -3.7240553,-3.6222029 -1.9467521,-2.2267008"
       stroke="#a52a2a"
       stroke-width="1"
       fill="none"
       id="polyline300"
       style="stroke-width:0.377953;stroke-dasharray:none" />
    <polyline
       points="-2.8701162,-3.177867 -2.974255,-3.268118 -3.293612,-3.6499739 -3.3560967,-3.9832306 -3.1894755,-4.3303633 -2.7104354,-4.5039415 -2.1203136,-4.552536"
       stroke="#a52a2a"
       stroke-width="1"
       fill="none"
       id="polyline302"
       style="stroke-width:0.377953;stroke-dasharray:none" />
    <polyline
       points="-2.29388,-6.5659475 -2.1689153,-5.948038 -1.7037606,-5.705042 -1.2455487,-5.642557"
       stroke="#a52a2a"
       stroke-width="1"
       fill="none"
       id="polyline304"
       style="stroke-width:0.377953;stroke-dasharray:none" />
    <polyline
       points="-2.5854707,-6.1771536 -2.9811978,-6.385436 -3.0297947,-6.656208 -2.5576997,-6.98946 -2.2452831,-7.1630287"
       stroke="#a52a2a"
       stroke-width="1"
       fill="none"
       id="polyline306"
       style="stroke-width:0.377953;stroke-dasharray:none" />
    <polyline
       points="-0.7942796,-7.808709 -0.9331322,-7.399087 -0.7040286,-7.204685 -0.5512905,-7.204685"
       stroke="#a52a2a"
       stroke-width="1"
       fill="none"
       id="polyline308"
       style="stroke-width:0.377953;stroke-dasharray:none" />
    <polyline
       points="-1.5787935,-8.89873 -1.7801285,-9.315295 -1.6898751,-9.565234 -1.3080335,-9.829063 -0.3430128,-9.954033 0.23322105,-10.051231 0.7678032,-10.113716"
       stroke="#a52a2a"
       stroke-width="1"
       fill="none"
       id="polyline310"
       style="stroke-width:0.377953;stroke-dasharray:none" />
    <polyline
       points="-1.1275244,-9.919319 -1.6065645,-10.092888 -1.8842673,-10.405316 -1.766243,-10.814939"
       stroke="#a52a2a"
       stroke-width="1"
       fill="none"
       id="polyline312"
       style="stroke-width:0.377953;stroke-dasharray:none" />
    <polyline
       points="-5.1403427,-9.801292 -5.008433,-9.613838 -4.133668,-8.975096 -3.3283257,-8.648787"
       stroke="#a52a2a"
       stroke-width="1"
       fill="none"
       id="polyline314"
       style="stroke-width:0.377953;stroke-dasharray:none" />
    <polyline
       points="-5.036204,-9.905429 -5.40416,-10.419197 -5.390277,-10.849652 -5.3694487,-10.91908"
       stroke="#a52a2a"
       stroke-width="1"
       fill="none"
       id="polyline316"
       style="stroke-width:0.377953;stroke-dasharray:none" />
    <polyline
       points="-4.078126,-12.029924 -4.078126,-11.946611 -4.001758,-11.627245 -3.4949493,-11.085706 -3.1894755,-10.801053"
       stroke="#a52a2a"
       stroke-width="1"
       fill="none"
       id="polyline318"
       style="stroke-width:0.377953;stroke-dasharray:none" />
    <polyline
       points="-3.6754537,-11.84247 -3.8837337,-11.849413 -4.0850687,-11.599474 -4.098954,-11.120424 -4.001758,-10.537224 -4.078126,-10.176201 -4.133668,-10.120659"
       stroke="#a52a2a"
       stroke-width="1"
       fill="none"
       id="polyline320"
       style="stroke-width:0.377953;stroke-dasharray:none" />
    <polyline
       points="-5.67492,-4.496994 -5.6957507,-4.5108843 -4.9945474,-4.031825 -4.133668,-3.6360931 -3.7379384,-3.4902906"
       stroke="#a52a2a"
       stroke-width="1"
       fill="none"
       id="polyline322"
       style="stroke-width:0.377953;stroke-dasharray:none" />
    <polyline
       points="-3.6615705,-2.8862667 -4.11978,-2.49053 -4.321115,-2.2267008 -4.335003,-2.171154 -4.154494,-2.497468"
       stroke="#a52a2a"
       stroke-width="1"
       fill="none"
       id="polyline324"
       style="stroke-width:0.377953;stroke-dasharray:none" />
    <polyline
       points="-2.6340675,-2.7543545 -2.0161772,-2.7265835 -1.2872028,-2.823782"
       stroke="#a52a2a"
       stroke-width="1"
       fill="none"
       id="polyline326"
       style="stroke-width:0.377953;stroke-dasharray:none" />
    <polyline
       points="0.8927679,-2.9001474 0.8788824,-2.9001474 1.5870285,-2.9070997"
       stroke="#a52a2a"
       stroke-width="1"
       fill="none"
       id="polyline328"
       style="stroke-width:0.377953;stroke-dasharray:none" />
    <polyline
       points="2.6492405,-3.0598354 2.5312185,-2.8654337 2.5798178,-2.8376722"
       stroke="#a52a2a"
       stroke-width="1"
       fill="none"
       id="polyline330"
       style="stroke-width:0.377953;stroke-dasharray:none" />
    <polyline
       points="-4.633534,-2.525239 -4.8140407,-2.2336435 -4.8140407,-2.025361 -4.4946814,-1.8726158 -4.1614366,-1.9003868 -4.015641,-1.9975901 -4.001758,-2.046194 -4.0850687,-2.046194 -4.105897,-2.032299 -3.8420773,-2.0670128 -3.4810638,-2.1433926 -2.918713,-2.0878458"
       stroke="#a52a2a"
       stroke-width="1"
       fill="none"
       id="polyline332"
       style="stroke-width:0.377953;stroke-dasharray:none" />
    <polyline
       points="1.5106583,-1.7198801 1.1565876,-1.7198801 1.663394,-1.7476511 2.3645973,-1.8517923"
       stroke="#a52a2a"
       stroke-width="1"
       fill="none"
       id="polyline334"
       style="stroke-width:0.377953;stroke-dasharray:none" />
    <polyline
       points="-7.1745205,-0.324378 -7.237003,-0.38686275 -7.2717166,-0.44935226 -7.320316,-0.484066 -7.368915,-0.303545 -7.4036264,0.07830143 -7.4522233,0.3768444 -7.486937,0.43239117 -7.5563645,0.4740429 -7.76464,0.5434704 -7.910435,0.62678814 -8.02846,0.66844463 -8.438072,0.7448101 -8.646353,0.8072996 -8.812973,0.8350706 -9.042077,0.8350706 -9.354494,0.8628416 -9.729393,0.9253311 -10.139008,0.96698284 -10.972118,1.0225296 -11.451157,1.0711241 -11.930194,1.216917 -12.173185,1.3696623 -12.235668,1.4738035 -12.221785,1.5571213"
       stroke="#000000"
       stroke-width="1"
       fill="none"
       id="polyline336"
       style="stroke-width:0.377953;stroke-dasharray:none" />
    <polyline
       points="3.3782148,0.4532194 3.3921003,0.41155815 3.4198713,0.41155815 3.8086557,0.62678814 4.13496,0.7378721 5.113859,0.9114361 5.766468,0.93921185 6.0927677,0.99475384 6.884222,1.1752653 7.113328,1.2446928 7.3563194,1.3557816 8.2102585,1.8556643 8.418536,2.0431137 8.751779,2.5846577 9.078083,2.7998781 9.293299,2.8762484"
       stroke="#000000"
       stroke-width="1"
       fill="none"
       id="polyline338"
       style="stroke-width:0.377953;stroke-dasharray:none" />
    <text
       x="-1.7801285"
       y="-61.768105"
       stroke="BLACK"
       id="text340"
       style="font-size:5.33333px;stroke:none">knochen</text>
    <text
       x="23.490896"
       y="-39.891361"
       stroke="BLACK"
       id="text342"
       style="font-size:5.33333px;stroke:none">knochen</text>
    <text
       x="17.117599"
       y="-58.123138"
       stroke="BLACK"
       id="text344"
       style="font-size:5.33333px;stroke:none">sinterrhrchen</text>
  </g>
  <polyline
     points="-7.1609936,-31.699667,-4.738825,-27.083023"
     stroke="#ff0000"
     stroke-width="1"
     fill="none"
     id="polyline347"
     style="stroke-width:0.377953;stroke-dasharray:none"
     transform="translate(-17.56649,-14.178565)" />
  <polyline
     points="13.665842,-56.26318,14.019215,-52.27093"
     stroke="#ff0000"
     stroke-width="1"
     fill="none"
     id="polyline349"
     style="stroke-width:0.377953;stroke-dasharray:none"
     transform="translate(-17.56649,-14.178565)" />
  <polyline
     points="-7.1609936,-31.699667,-1.6998047,-19.673973"
     stroke="#ff0000"
     stroke-width="1"
     fill="none"
     id="polyline351"
     style="stroke-width:0.377953;stroke-dasharray:none"
     transform="translate(-17.56649,-14.178565)" />
  <polyline
     points="-7.1609936,-31.699667,-2.3230789,-29.042494"
     stroke="#ff0000"
     stroke-width="1"
     fill="none"
     id="polyline353"
     style="stroke-width:0.377953;stroke-dasharray:none"
     transform="translate(-17.56649,-14.178565)" />
  <polyline
     points="13.665842,-56.26318,7.2207766,-60.370895"
     stroke="#ff0000"
     stroke-width="1"
     fill="none"
     id="polyline355"
     style="stroke-width:0.377953;stroke-dasharray:none"
     transform="translate(-17.56649,-14.178565)" />
  <polyline
     points="-7.1609936,-31.699667,13.665842,-56.26318"
     stroke="#ff0000"
     stroke-width="2"
     fill="none"
     id="polyline357"
     style="stroke-width:0.755906;stroke-dasharray:none"
     transform="translate(-17.56649,-14.178565)" />
  <polyline
     points="13.665842,-56.26318,11.629881,-49.057396"
     stroke="#ff0000"
     stroke-width="1"
     fill="none"
     id="polyline359"
     style="stroke-width:0.377953;stroke-dasharray:none"
     transform="translate(-17.56649,-14.178565)" />
  <polyline
     points="0.0,-0.0,3.6738977,1.3080312"
     stroke="#ff0000"
     stroke-width="1"
     fill="none"
     id="polyline361"
     style="stroke-width:0.377953;stroke-dasharray:none"
     transform="translate(-17.56649,-14.178565)" />
  <polyline
     points="13.665842,-56.26318,11.275724,-56.011787"
     stroke="#ff0000"
     stroke-width="1"
     fill="none"
     id="polyline363"
     style="stroke-width:0.377953;stroke-dasharray:none"
     transform="translate(-17.56649,-14.178565)" />
  <polyline
     points="0.0,-0.0,-7.1609936,-31.699667"
     stroke="#ff0000"
     stroke-width="2"
     fill="none"
     id="polyline365"
     style="stroke-width:0.755906;stroke-dasharray:none"
     transform="translate(-17.56649,-14.178565)" />
  <polyline
     points="13.665842,-56.26318,21.074255,-32.588905"
     stroke="#ff0000"
     stroke-width="2"
     fill="none"
     id="polyline367"
     style="stroke-width:0.755906;stroke-dasharray:none"
     transform="translate(-17.56649,-14.178565)" />
  <polyline
     points="-7.1609936,-31.699667,-1.4767599,-46.47572"
     stroke="#ff0000"
     stroke-width="1"
     fill="none"
     id="polyline369"
     style="stroke-width:0.377953;stroke-dasharray:none"
     transform="translate(-17.56649,-14.178565)" />
  <polyline
     points="13.665842,-56.26318,9.706178,-60.151764"
     stroke="#ff0000"
     stroke-width="1"
     fill="none"
     id="polyline371"
     style="stroke-width:0.377953;stroke-dasharray:none"
     transform="translate(-17.56649,-14.178565)" />
  <polyline
     points="0.0,-0.0,-6.9224186,0.27868736"
     stroke="#ff0000"
     stroke-width="1"
     fill="none"
     id="polyline373"
     style="stroke-width:0.377953;stroke-dasharray:none"
     transform="translate(-17.56649,-14.178565)" />
  <polyline
     points="-7.1609936,-31.699667,-0.23697376,-4.903872"
     stroke="#ff0000"
     stroke-width="1"
     fill="none"
     id="polyline375"
     style="stroke-width:0.377953;stroke-dasharray:none"
     transform="translate(-17.56649,-14.178565)" />
  <polyline
     points="0.0,-0.0,-3.1791816,0.8181727"
     stroke="#ff0000"
     stroke-width="1"
     fill="none"
     id="polyline377"
     style="stroke-width:0.377953;stroke-dasharray:none"
     transform="translate(-17.56649,-14.178565)" />
  <polyline
     points="-7.1609936,-31.699667,-3.477737,-19.7333"
     stroke="#ff0000"
     stroke-width="1"
     fill="none"
     id="polyline379"
     style="stroke-width:0.377953;stroke-dasharray:none"
     transform="translate(-17.56649,-14.178565)" />
</svg>
